<?xml version="1.0" encoding="UTF-8" standalone="no"?>
<!DOCTYPE svg PUBLIC "-//W3C//DTD SVG 1.1//EN" "http://www.w3.org/Graphics/SVG/1.1/DTD/svg11.dtd">
<svg width="48" height="48" viewBox="0 0 683 683" version="1.1" xmlns="http://www.w3.org/2000/svg" xmlns:xlink="http://www.w3.org/1999/xlink" xml:space="preserve"  style="fill-rule:evenodd;clip-rule:evenodd;stroke-linejoin:round;stroke-miterlimit:2;">
    <g transform="matrix(1,0,0,1,-768.968,-808)">
        <g transform="matrix(1,0,0,1,768.968,808)">
            <rect id="triangles" x="0" y="0" width="682.667" height="682.667" style="fill:none;"/>
            <clipPath id="_clip1">
                <rect id="triangles1"  x="0" y="0" width="682.667" height="682.667"/>
            </clipPath>
            <g clip-path="url(#_clip1)">
                <g transform="matrix(0.691331,0,0,0.683779,-426.253,-468.726)">
                    <path d="M868.943,1149.33L868.943,1220.03L1110.3,1461.38L1110.3,1390.69L868.943,1149.33Z" style="fill-opacity:0.06;"/>
                </g>
                <g transform="matrix(-0.691331,0,0,0.683779,1108.92,-468.726)">
                    <path d="M868.943,1149.33L868.943,1220.03L1110.3,1461.38L1110.3,1390.69L868.943,1149.33Z" style="fill-opacity:0.04;"/>
                </g>
                <g transform="matrix(0.691331,0,0,0.683779,-426.253,-468.726)">
                    <path d="M1195.3,1185.02L1110.3,1100.03L1110.3,1029.33L1230.64,1149.67L1195.3,1185.02Z" style="fill-opacity:0.06;"/>
                </g>
                <g transform="matrix(0.691331,0,0,0.683779,-426.253,-468.726)">
                    <path d="M989.962,1149.67L1110.3,1029.33L1110.3,1100.03L1025.31,1185.02L989.962,1149.67Z" style="fill-opacity:0.04;"/>
                </g>
                <g transform="matrix(0.691331,0,0,0.683779,-84.9197,-810.059)">
                    <path d="M868.943,1149.33L868.943,1220.03L1110.3,1461.38L1110.3,1390.69L868.943,1149.33Z" style="fill-opacity:0.06;"/>
                </g>
                <g transform="matrix(-0.691331,0,0,0.683779,1450.25,-810.059)">
                    <path d="M868.943,1149.33L868.943,1220.03L1110.3,1461.38L1110.3,1390.69L868.943,1149.33Z" style="fill-opacity:0.02;"/>
                </g>
                <g transform="matrix(0.691331,0,0,0.683779,-84.9197,-810.059)">
                    <path d="M1195.3,1185.02L1110.3,1100.03L1110.3,1029.33L1230.64,1149.67L1195.3,1185.02Z" style="fill-opacity:0.04;"/>
                </g>
                <g transform="matrix(0.691331,0,0,0.683779,-84.9197,-810.059)">
                    <path d="M989.962,1149.67L1110.3,1029.33L1110.3,1100.03L1025.31,1185.02L989.962,1149.67Z" style="fill-opacity:0.02;"/>
                </g>
                <g transform="matrix(0.691331,0,0,0.683779,-767.586,-127.393)">
                    <path d="M868.943,1149.33L868.943,1220.03L1110.3,1461.38L1110.3,1390.69L868.943,1149.33Z" style="fill-opacity:0.04;"/>
                </g>
                <g transform="matrix(-0.691331,0,0,0.683779,767.586,-127.393)">
                    <path d="M868.943,1149.33L868.943,1220.03L1110.3,1461.38L1110.3,1390.69L868.943,1149.33Z" style="fill-opacity:0.04;"/>
                </g>
                <g transform="matrix(0.691331,0,0,0.683779,-767.586,-127.393)">
                    <path d="M1195.3,1185.02L1110.3,1100.03L1110.3,1029.33L1230.64,1149.67L1195.3,1185.02Z" style="fill-opacity:0.06;"/>
                </g>
                <g transform="matrix(0.691331,0,0,0.683779,-767.586,-127.393)">
                    <path d="M989.962,1149.67L1110.3,1029.33L1110.3,1100.03L1025.31,1185.02L989.962,1149.67Z" style="fill-opacity:0.02;"/>
                </g>
                <g transform="matrix(0.691331,0,0,0.683779,-767.586,-810.059)">
                    <path d="M868.943,1149.33L868.943,1220.03L1110.3,1461.38L1110.3,1390.69L868.943,1149.33Z" style="fill-opacity:0.04;"/>
                </g>
                <g transform="matrix(-0.691331,0,0,0.683779,767.586,-810.059)">
                    <path d="M868.943,1149.33L868.943,1220.03L1110.3,1461.38L1110.3,1390.69L868.943,1149.33Z" style="fill-opacity:0.04;"/>
                </g>
                <g transform="matrix(0.691331,0,0,0.683779,-767.586,-810.059)">
                    <path d="M1195.3,1185.02L1110.3,1100.03L1110.3,1029.33L1230.64,1149.67L1195.3,1185.02Z" style="fill-opacity:0.04;"/>
                </g>
                <g transform="matrix(0.691331,0,0,0.683779,-767.586,-810.059)">
                    <path d="M989.962,1149.67L1110.3,1029.33L1110.3,1100.03L1025.31,1185.02L989.962,1149.67Z" style="fill-opacity:0.02;"/>
                </g>
                <g transform="matrix(1,0,0,1,-768.968,-808)">
                    <path d="M768.968,1301.46L768.968,948.867L911.392,808L1309.21,808L1451.63,948.867L1451.63,1301.46L1284.78,1466.5L1309.45,1490.9L911.157,1490.9L935.828,1466.5L768.968,1301.46ZM827.727,1490.9L768.968,1490.9L768.968,1383.98L852.398,1466.5L827.727,1490.9ZM1277.16,1125.16L1110.3,960.128L943.443,1125.16L1110.3,1290.2L1277.16,1125.16ZM1193.73,1125.16L1110.3,1207.68L1026.87,1125.16L1110.3,1042.65L1193.73,1125.16ZM1451.63,1383.98L1451.63,1490.9L1392.88,1490.9L1368.21,1466.5L1451.63,1383.98ZM768.968,866.349L768.968,808L827.962,808L768.968,866.349ZM1392.64,808L1451.63,808L1451.63,866.349L1392.64,808Z" style="fill-opacity:0.06;"/>
                </g>
                <g transform="matrix(0.691331,0,0,0.683779,-84.9197,-127.393)">
                    <path d="M868.943,1149.33L868.943,1220.03L1110.3,1461.38L1110.3,1390.69L868.943,1149.33Z" style="fill-opacity:0.06;"/>
                </g>
                <g transform="matrix(-0.691331,0,0,0.683779,1450.25,-127.393)">
                    <path d="M868.943,1149.33L868.943,1220.03L1110.3,1461.38L1110.3,1390.69L868.943,1149.33Z" style="fill-opacity:0.02;"/>
                </g>
                <g transform="matrix(0.691331,0,0,0.683779,-84.9197,-127.393)">
                    <path d="M1195.3,1185.02L1110.3,1100.03L1110.3,1029.33L1230.64,1149.67L1195.3,1185.02Z" style="fill-opacity:0.04;"/>
                </g>
                <g transform="matrix(0.691331,0,0,0.683779,-84.9197,-127.393)">
                    <path d="M989.962,1149.67L1110.3,1029.33L1110.3,1100.03L1025.31,1185.02L989.962,1149.67Z" style="fill-opacity:0.04;"/>
                </g>
            </g>
        </g>
    </g>
</svg>
