<?xml version="1.0" encoding="UTF-8" standalone="no"?>
<!DOCTYPE svg PUBLIC "-//W3C//DTD SVG 1.1//EN" "http://www.w3.org/Graphics/SVG/1.1/DTD/svg11.dtd">
<svg width="256" height="256" viewBox="0 0 2560 2560" version="1.1" xmlns="http://www.w3.org/2000/svg" xmlns:xlink="http://www.w3.org/1999/xlink" xml:space="preserve"  style="fill-rule:evenodd;clip-rule:evenodd;stroke-linejoin:round;stroke-miterlimit:2;">
    <g transform="matrix(1,0,0,1,-3203.11,0)">
        <g transform="matrix(3.75,0,0,3.75,3203.11,0)">
            <rect id="lines" x="0" y="0" width="682.667" height="682.667" style="fill:none;"/>
            <clipPath id="_clip1">
                <rect id="lines1" x="0" y="0" width="682.667" height="682.667"/>
            </clipPath>
            <g clip-path="url(#_clip1)">
                <g transform="matrix(0.266667,0,0,0.268063,-482.342,-91.4988)">
                    <path d="M3088.78,341.333L2713.45,341.333C2695.79,341.333 2681.45,355.597 2681.45,373.167C2681.45,390.736 2695.79,405 2713.45,405L3088.78,405L3088.78,341.333Z" style="fill-opacity:0.02;"/>
                </g>
                <g transform="matrix(0.266667,0,0,0.268063,-460.742,-57.3654)">
                    <path d="M3007.78,341.333L2713.45,341.333C2695.79,341.333 2681.45,355.597 2681.45,373.167C2681.45,390.736 2695.79,405 2713.45,405L3007.78,405L3007.78,341.333Z" style="fill-opacity:0.02;"/>
                </g>
                <g transform="matrix(0.266667,0,0,0.266667,-806.63,0)">
                    <path d="M4958.53,256C4976.19,256 4990.53,270.339 4990.53,288C4990.53,305.661 4976.19,320 4958.53,320L4351.78,320C4334.12,320 4319.78,305.661 4319.78,288C4319.78,270.339 4334.12,256 4351.78,256L4958.53,256Z" style="fill-opacity:0.04;"/>
                </g>
                <g transform="matrix(0.266667,0,0,0.268063,-453.542,-6.16545)">
                    <path d="M2980.78,341.333L2713.45,341.333C2695.79,341.333 2681.45,355.597 2681.45,373.167C2681.45,390.736 2695.79,405 2713.45,405L2980.78,405L2980.78,341.333Z" style="fill-opacity:0.06;"/>
                </g>
                <g transform="matrix(0.266667,0,0,0.266667,-854.164,0)">
                    <path d="M4991.11,448C5008.78,448 5023.11,462.339 5023.11,480C5023.11,497.661 5008.78,512 4991.11,512L4306.78,512C4289.12,512 4274.78,497.661 4274.78,480C4274.78,462.339 4289.12,448 4306.78,448L4991.11,448Z" style="fill-opacity:0.06;"/>
                </g>
                <g transform="matrix(0.266667,0,0,0.266667,-643.23,-34.1333)">
                    <path d="M3218.45,256C3236.11,256 3250.45,270.339 3250.45,288C3250.45,305.661 3236.11,320 3218.45,320L3073.78,320C3056.12,320 3041.78,305.661 3041.78,288C3041.78,270.339 3056.12,256 3073.78,256L3218.45,256Z" style="fill-opacity:0.02;"/>
                </g>
                <g transform="matrix(0.266667,0,0,0.266667,-854.164,0)">
                    <path d="M3310.45,384L3613.45,384C3595.79,384 3581.45,398.339 3581.45,416C3581.45,433.661 3595.79,448 3613.45,448L3310.45,448C3328.11,448 3342.45,433.661 3342.45,416C3342.45,398.339 3328.11,384 3310.45,384Z" style="fill-opacity:0.04;"/>
                </g>
                <g transform="matrix(-0.266667,0,0,0.266667,1611.9,0)">
                    <path d="M4410.78,384C4393.12,384 4378.78,398.339 4378.78,416C4378.78,433.661 4393.12,448 4410.78,448L4049.45,448C4031.79,448 4017.45,433.661 4017.45,416C4017.45,398.339 4031.79,384 4049.45,384L4410.78,384Z" style="fill-opacity:0.06;"/>
                </g>
                <g transform="matrix(0.266667,0,0,0.266667,-854.164,0)">
                    <path d="M4262.78,1024C4245.12,1024 4230.78,1038.34 4230.78,1056C4230.78,1073.66 4245.12,1088 4262.78,1088L4086.11,1088C4103.77,1088 4118.11,1073.66 4118.11,1056C4118.11,1038.34 4103.77,1024 4086.11,1024L4262.78,1024Z" style="fill-opacity:0.08;"/>
                </g>
                <g transform="matrix(0.266667,0,0,0.266667,-601.808,68.2667)">
                    <path d="M3148.45,256C3166.11,256 3180.45,270.339 3180.45,288C3180.45,305.661 3166.11,320 3148.45,320L3073.78,320C3056.12,320 3041.78,305.661 3041.78,288C3041.78,270.339 3056.12,256 3073.78,256L3148.45,256Z" style="fill-opacity:0.04;"/>
                </g>
                <g transform="matrix(0.266667,0,0,0.266667,-854.164,0)">
                    <path d="M4321.45,128L4188.61,128C4206.27,128 4220.61,113.661 4220.61,96C4220.61,78.339 4206.27,64 4188.61,64L4321.45,64C4303.79,64 4289.45,78.339 4289.45,96C4289.45,113.661 4303.79,128 4321.45,128ZM4396.11,64L4483.11,64L4483.11,128L4396.11,128C4413.78,128 4428.11,113.661 4428.11,96C4428.11,78.339 4413.78,64 4396.11,64Z" style="fill-opacity:0.02;"/>
                </g>
                <g transform="matrix(0.266667,0,0,0.266667,-756.475,0)">
                    <path d="M3272.78,576L2836.78,576L2836.78,512L3272.78,512C3255.12,512 3240.78,526.339 3240.78,544C3240.78,561.661 3255.12,576 3272.78,576ZM3347.45,512L3476.78,512C3494.44,512 3508.78,526.339 3508.78,544C3508.78,561.661 3494.44,576 3476.78,576L3347.45,576C3365.11,576 3379.45,561.661 3379.45,544C3379.45,526.339 3365.11,512 3347.45,512Z" style="fill-opacity:0.04;"/>
                </g>
                <g transform="matrix(0.266667,0,0,0.266667,-796.475,0)">
                    <path d="M3640.45,640L3347.95,640C3330.29,640 3315.95,625.661 3315.95,608C3315.95,590.339 3330.29,576 3347.95,576L3640.45,576C3658.11,576 3672.45,590.339 3672.45,608C3672.45,625.661 3658.11,640 3640.45,640Z" style="fill-opacity:0.04;"/>
                </g>
                <g transform="matrix(-0.266667,0,0,-0.268063,888.83,228.032)">
                    <path d="M3333.11,341.333L2713.45,341.333C2695.79,341.333 2681.45,355.597 2681.45,373.167C2681.45,390.736 2695.79,405 2713.45,405L3333.11,405L3333.11,341.333Z" style="fill-opacity:0.04;"/>
                </g>
                <g transform="matrix(-0.266667,0,0,-0.268063,873.364,193.899)">
                    <path d="M3275.11,341.333L2713.45,341.333C2695.79,341.333 2681.45,355.597 2681.45,373.167C2681.45,390.736 2695.79,405 2713.45,405L3275.11,405L3275.11,341.333Z" style="fill-opacity:0.04;"/>
                </g>
                <g transform="matrix(-0.266667,0,0,-0.268063,850.364,176.832)">
                    <path d="M3188.86,341.333L2713.45,341.333C2695.79,341.333 2681.45,355.597 2681.45,373.167C2681.45,390.736 2695.79,405 2713.45,405L3188.86,405L3188.86,341.333Z" style="fill-opacity:0.04;"/>
                </g>
                <g transform="matrix(0.266667,0,0,0.266667,-580.564,0)">
                    <path d="M3413.45,256C3431.11,256 3445.45,241.661 3445.45,224C3445.45,206.339 3431.11,192 3413.45,192L3457.11,192L3457.11,256L3413.45,256Z" style="fill-opacity:0.04;"/>
                </g>
                <g transform="matrix(-0.266667,0,0,-0.268063,778.075,142.699)">
                    <path d="M2917.78,341.333L2713.45,341.333C2695.79,341.333 2681.45,355.597 2681.45,373.167C2681.45,390.736 2695.79,405 2713.45,405L2917.78,405L2917.78,341.333Z" style="fill-opacity:0.06;"/>
                </g>
                <g transform="matrix(-0.266667,0,0,-0.268063,832.208,125.632)">
                    <path d="M3120.78,341.333L2713.45,341.333C2695.79,341.333 2681.45,355.597 2681.45,373.167C2681.45,390.736 2695.79,405 2713.45,405L3120.78,405L3120.78,341.333Z" style="fill-opacity:0.06;"/>
                </g>
                <g transform="matrix(0.266667,0,0,0.266667,-657.897,-102.4)">
                    <path d="M2542.11,384C2524.45,384 2510.11,398.339 2510.11,416C2510.11,433.661 2524.45,448 2542.11,448L2467.11,448L2467.11,384L2542.11,384Z" style="fill-opacity:0.06;"/>
                </g>
                <g transform="matrix(-0.266667,0,0,0.268063,806.875,113.301)">
                    <path d="M3025.78,341.333L2713.45,341.333C2695.79,341.333 2681.45,355.597 2681.45,373.167C2681.45,390.736 2695.79,405 2713.45,405L3025.78,405L3025.78,341.333Z" style="fill-opacity:0.08;"/>
                </g>
                <g transform="matrix(-0.266667,0,0,0.268063,744.742,147.435)">
                    <path d="M2792.78,341.333L2713.45,341.333C2695.79,341.333 2681.45,355.597 2681.45,373.167C2681.45,390.736 2695.79,405 2713.45,405L2792.78,405L2792.78,341.333Z" style="fill-opacity:0.08;"/>
                </g>
                <g transform="matrix(0.266667,0,0,-0.266667,-870.164,580.267)">
                    <path d="M3794.11,960C3811.78,960 3826.11,974.339 3826.11,992C3826.11,1009.66 3811.78,1024 3794.11,1024L3498.45,1024C3480.79,1024 3466.45,1009.66 3466.45,992C3466.45,974.339 3480.79,960 3498.45,960L3794.11,960Z" style="fill-opacity:0.08;"/>
                </g>
                <g transform="matrix(0.266667,0,0,-0.266667,-848.83,580.267)">
                    <path d="M3613.11,1088C3630.78,1088 3645.11,1102.34 3645.11,1120C3645.11,1137.66 3630.78,1152 3613.11,1152L3364.11,1152C3346.45,1152 3332.11,1137.66 3332.11,1120C3332.11,1102.34 3346.45,1088 3364.11,1088L3613.11,1088Z" style="fill-opacity:0.08;"/>
                </g>
                <g transform="matrix(0.266667,0,0,-0.266667,-870.164,580.267)">
                    <path d="M3613.11,1024L3920.45,1024C3938.11,1024 3952.45,1038.34 3952.45,1056C3952.45,1073.66 3938.11,1088 3920.45,1088L3613.11,1088C3630.78,1088 3645.11,1073.66 3645.11,1056C3645.11,1038.34 3630.78,1024 3613.11,1024Z" style="fill-opacity:0.08;"/>
                </g>
                <g transform="matrix(-0.266667,0,0,0.266667,968.03,256)">
                    <path d="M3148.45,256C3166.11,256 3180.45,270.339 3180.45,288C3180.45,305.661 3166.11,320 3148.45,320L3073.78,320C3056.12,320 3041.78,305.661 3041.78,288C3041.78,270.339 3056.12,256 3073.78,256L3148.45,256Z" style="fill-opacity:0.04;"/>
                </g>
                <g transform="matrix(0.266667,0,0,0.266667,-854.164,0)">
                    <path d="M4413.61,1216L4227.28,1216C4244.94,1216 4259.28,1201.66 4259.28,1184C4259.28,1166.34 4244.94,1152 4227.28,1152L4413.61,1152C4395.95,1152 4381.61,1166.34 4381.61,1184C4381.61,1201.66 4395.95,1216 4413.61,1216Z" style="fill-opacity:0.11;"/>
                </g>
                <g transform="matrix(0.266667,0,0,0.266667,-854.164,0)">
                    <path d="M4399.78,1152L4018.78,1152C4001.12,1152 3986.78,1137.66 3986.78,1120C3986.78,1102.34 4001.12,1088 4018.78,1088L4399.78,1088C4417.44,1088 4431.78,1102.34 4431.78,1120C4431.78,1137.66 4417.44,1152 4399.78,1152Z" style="fill-opacity:0.08;"/>
                </g>
                <g transform="matrix(0.266667,0,0,-0.268063,-548.564,347.499)">
                    <path d="M3337.11,341.333L2713.45,341.333C2695.79,341.333 2681.45,355.597 2681.45,373.167C2681.45,390.736 2695.79,405 2713.45,405L3337.11,405L3337.11,341.333Z" style="fill-opacity:0.08;"/>
                </g>
                <g transform="matrix(-0.266667,0,0,0.266667,926.697,170.667)">
                    <path d="M3413.45,256C3431.11,256 3445.45,241.661 3445.45,224C3445.45,206.339 3431.11,192 3413.45,192L3475.11,192L3475.11,256L3413.45,256Z" style="fill-opacity:0.08;"/>
                </g>
                <g transform="matrix(0.266667,0,0,0.266667,-589.586,170.667)">
                    <path d="M3413.45,256C3431.11,256 3445.45,241.661 3445.45,224C3445.45,206.339 3431.11,192 3413.45,192L3490.95,192L3490.95,256L3413.45,256Z" style="fill-opacity:0.08;"/>
                </g>
                <g transform="matrix(0.266667,0,0,-0.268063,-400.742,313.365)">
                    <path d="M2782.78,341.333L2713.45,341.333C2695.79,341.333 2681.45,355.597 2681.45,373.167C2681.45,390.736 2695.79,405 2713.45,405L2782.78,405L2782.78,341.333Z" style="fill-opacity:0.08;"/>
                </g>
                <g transform="matrix(0.266667,0,0,0.266667,-861.186,0)">
                    <path d="M4271.45,768L4010.78,768C3993.12,768 3978.78,753.661 3978.78,736C3978.78,718.339 3993.12,704 4010.78,704L4271.45,704C4289.11,704 4303.45,718.339 4303.45,736C4303.45,753.661 4289.11,768 4271.45,768Z" style="fill-opacity:0.08;"/>
                </g>
                <g transform="matrix(0.266667,0,0,0.266667,-843.497,0)">
                    <path d="M4402.78,640L4146.78,640C4129.12,640 4114.78,625.661 4114.78,608C4114.78,590.339 4129.12,576 4146.78,576L4402.78,576C4385.12,576 4370.78,590.339 4370.78,608C4370.78,625.661 4385.12,640 4402.78,640Z" style="fill-opacity:0.06;"/>
                </g>
                <g transform="matrix(0.266667,0,0,0.268063,-243.942,-91.4988)">
                    <path d="M3474.78,341.333L2713.45,341.333C2695.79,341.333 2681.45,355.597 2681.45,373.167C2681.45,390.736 2695.79,405 2713.45,405L3474.78,405L3474.78,341.333Z" style="fill-opacity:0.06;"/>
                </g>
                <g transform="matrix(0.266667,0,0,0.268063,-222.342,-57.3654)">
                    <path d="M3393.78,341.333L2713.45,341.333C2695.79,341.333 2681.45,355.597 2681.45,373.167C2681.45,390.736 2695.79,405 2713.45,405L3393.78,405L3393.78,341.333Z" style="fill-opacity:0.06;"/>
                </g>
                <g transform="matrix(0.266667,0,0,0.268063,-75.9415,-23.2321)">
                    <path d="M2844.78,341.333L2713.45,341.333C2695.79,341.333 2681.45,355.597 2681.45,373.167C2681.45,390.736 2695.79,405 2713.45,405L2844.78,405L2844.78,341.333Z" style="fill-opacity:0.04;"/>
                </g>
                <g transform="matrix(0.266667,0,0,0.268063,-112.208,-6.16545)">
                    <path d="M2980.78,341.333L2713.45,341.333C2695.79,341.333 2681.45,355.597 2681.45,373.167C2681.45,390.736 2695.79,405 2713.45,405L2980.78,405L2980.78,341.333Z" style="fill-opacity:0.04;"/>
                </g>
                <g transform="matrix(0.266667,0,0,0.268063,-87.9415,27.9679)">
                    <path d="M2889.78,341.333L2713.45,341.333C2695.79,341.333 2681.45,355.597 2681.45,373.167C2681.45,390.736 2695.79,405 2713.45,405L2889.78,405L2889.78,341.333Z" style="fill-opacity:0.04;"/>
                </g>
                <g transform="matrix(0.266667,0,0,0.266667,-404.83,-34.1333)">
                    <path d="M3218.45,256C3236.11,256 3250.45,270.339 3250.45,288C3250.45,305.661 3236.11,320 3218.45,320L3073.78,320C3056.12,320 3041.78,305.661 3041.78,288C3041.78,270.339 3056.12,256 3073.78,256L3218.45,256Z" style="fill-opacity:0.11;"/>
                </g>
                <g transform="matrix(-0.266667,0,0,0.266667,1281.23,0)">
                    <path d="M3310.45,384L3613.45,384C3595.79,384 3581.45,398.339 3581.45,416C3581.45,433.661 3595.79,448 3613.45,448L3310.45,448C3328.11,448 3342.45,433.661 3342.45,416C3342.45,398.339 3328.11,384 3310.45,384Z" style="fill-opacity:0.06;"/>
                </g>
                <g transform="matrix(0.266667,0,0,0.266667,-502.164,0)">
                    <path d="M4410.78,384C4393.12,384 4378.78,398.339 4378.78,416C4378.78,433.661 4393.12,448 4410.78,448L4049.45,448C4031.79,448 4017.45,433.661 4017.45,416C4017.45,398.339 4031.79,384 4049.45,384L4410.78,384Z" style="fill-opacity:0.04;"/>
                </g>
                <g transform="matrix(0.266667,0,0,0.266667,-512.83,0)">
                    <path d="M4262.78,1024C4245.12,1024 4230.78,1038.34 4230.78,1056C4230.78,1073.66 4245.12,1088 4262.78,1088L4086.11,1088C4103.77,1088 4118.11,1073.66 4118.11,1056C4118.11,1038.34 4103.77,1024 4086.11,1024L4262.78,1024Z" style="fill-opacity:0.08;"/>
                </g>
                <g transform="matrix(0.266667,0,0,0.266667,-260.475,68.2667)">
                    <path d="M3148.45,256C3166.11,256 3180.45,270.339 3180.45,288C3180.45,305.661 3166.11,320 3148.45,320L3073.78,320C3056.12,320 3041.78,305.661 3041.78,288C3041.78,270.339 3056.12,256 3073.78,256L3148.45,256Z" style="fill-opacity:0.04;"/>
                </g>
                <g transform="matrix(0.266667,0,0,0.266667,-615.764,0)">
                    <path d="M4321.45,128L4188.61,128C4206.27,128 4220.61,113.661 4220.61,96C4220.61,78.339 4206.27,64 4188.61,64L4321.45,64C4303.79,64 4289.45,78.339 4289.45,96C4289.45,113.661 4303.79,128 4321.45,128ZM4666.11,64L4869.11,64L4869.11,128L4666.11,128C4683.78,128 4698.11,113.661 4698.11,96C4698.11,78.339 4683.78,64 4666.11,64Z" style="fill-opacity:0.06;"/>
                </g>
                <g transform="matrix(0.266667,0,0,0.266667,-275.453,85.3333)">
                    <path d="M3413.45,256C3431.11,256 3445.45,241.661 3445.45,224C3445.45,206.339 3431.11,192 3413.45,192L3592.95,192L3592.95,256L3413.45,256Z" style="fill-opacity:0.04;"/>
                </g>
                <g transform="matrix(0.266667,0,0,0.266667,-455.142,0)">
                    <path d="M3640.45,640L3347.95,640C3330.29,640 3315.95,625.661 3315.95,608C3315.95,590.339 3330.29,576 3347.95,576L3640.45,576C3658.11,576 3672.45,590.339 3672.45,608C3672.45,625.661 3658.11,640 3640.45,640Z" style="fill-opacity:0.06;"/>
                </g>
                <g transform="matrix(-0.266667,0,0,-0.268063,1214.7,193.899)">
                    <path d="M3275.11,341.333L2713.45,341.333C2695.79,341.333 2681.45,355.597 2681.45,373.167C2681.45,390.736 2695.79,405 2713.45,405L3275.11,405L3275.11,341.333Z" style="fill-opacity:0.06;"/>
                </g>
                <g transform="matrix(0.266667,0,0,0.266667,-239.23,0)">
                    <path d="M3413.45,256C3431.11,256 3445.45,241.661 3445.45,224C3445.45,206.339 3431.11,192 3413.45,192L3457.11,192L3457.11,256L3413.45,256Z" style="fill-opacity:0.04;"/>
                </g>
                <g transform="matrix(-0.266667,0,0,-0.268063,1119.41,142.699)">
                    <path d="M2917.78,341.333L2713.45,341.333C2695.79,341.333 2681.45,355.597 2681.45,373.167C2681.45,390.736 2695.79,405 2713.45,405L2917.78,405L2917.78,341.333Z" style="fill-opacity:0.02;"/>
                </g>
                <g transform="matrix(-0.266667,0,0,-0.268063,1173.54,125.632)">
                    <path d="M3120.78,341.333L2713.45,341.333C2695.79,341.333 2681.45,355.597 2681.45,373.167C2681.45,390.736 2695.79,405 2713.45,405L3120.78,405L3120.78,341.333Z" style="fill-opacity:0.02;"/>
                </g>
                <g transform="matrix(0.266667,0,0,0.266667,-316.564,-102.4)">
                    <path d="M2542.11,384C2524.45,384 2510.11,398.339 2510.11,416C2510.11,433.661 2524.45,448 2542.11,448L2467.11,448L2467.11,384L2542.11,384Z" style="fill-opacity:0.02;"/>
                </g>
                <g transform="matrix(-0.266667,0,0,0.268063,1148.21,113.301)">
                    <path d="M3025.78,341.333L2713.45,341.333C2695.79,341.333 2681.45,355.597 2681.45,373.167C2681.45,390.736 2695.79,405 2713.45,405L3025.78,405L3025.78,341.333Z" style="fill-opacity:0.08;"/>
                </g>
                <g transform="matrix(-0.266667,0,0,0.268063,1086.07,147.435)">
                    <path d="M2792.78,341.333L2713.45,341.333C2695.79,341.333 2681.45,355.597 2681.45,373.167C2681.45,390.736 2695.79,405 2713.45,405L2792.78,405L2792.78,341.333Z" style="fill-opacity:0.08;"/>
                </g>
                <g transform="matrix(0.266667,0,0,0.266667,-528.83,0)">
                    <path d="M3794.11,960C3811.78,960 3826.11,974.339 3826.11,992C3826.11,1009.66 3811.78,1024 3794.11,1024L3498.45,1024C3480.79,1024 3466.45,1009.66 3466.45,992C3466.45,974.339 3480.79,960 3498.45,960L3794.11,960Z" style="fill-opacity:0.02;"/>
                </g>
                <g transform="matrix(0.266667,0,0,0.266667,-507.497,0)">
                    <path d="M3613.11,1088C3630.78,1088 3645.11,1102.34 3645.11,1120C3645.11,1137.66 3630.78,1152 3613.11,1152L3364.11,1152C3346.45,1152 3332.11,1137.66 3332.11,1120C3332.11,1102.34 3346.45,1088 3364.11,1088L3613.11,1088Z" style="fill-opacity:0.02;"/>
                </g>
                <g transform="matrix(0.266667,0,0,0.266667,-528.83,0)">
                    <path d="M3613.11,1024L3920.45,1024C3938.11,1024 3952.45,1038.34 3952.45,1056C3952.45,1073.66 3938.11,1088 3920.45,1088L3613.11,1088C3630.78,1088 3645.11,1073.66 3645.11,1056C3645.11,1038.34 3630.78,1024 3613.11,1024Z" style="fill-opacity:0.02;"/>
                </g>
                <g transform="matrix(0.266667,0,0,0.266667,-512.83,0)">
                    <path d="M3552.78,1216L3275.95,1216C3258.29,1216 3243.95,1201.66 3243.95,1184C3243.95,1166.34 3258.29,1152 3275.95,1152L3552.78,1152C3535.12,1152 3520.78,1166.34 3520.78,1184C3520.78,1201.66 3535.12,1216 3552.78,1216Z" style="fill-opacity:0.02;"/>
                </g>
                <g transform="matrix(-0.266667,0,0,0.266667,1309.36,256)">
                    <path d="M3148.45,256C3166.11,256 3180.45,270.339 3180.45,288C3180.45,305.661 3166.11,320 3148.45,320L3073.78,320C3056.12,320 3041.78,305.661 3041.78,288C3041.78,270.339 3056.12,256 3073.78,256L3148.45,256Z" style="fill-opacity:0.04;"/>
                </g>
                <g transform="matrix(0.266667,0,0,0.266667,-512.83,0)">
                    <path d="M4413.61,1216L4227.28,1216C4244.94,1216 4259.28,1201.66 4259.28,1184C4259.28,1166.34 4244.94,1152 4227.28,1152L4413.61,1152C4395.95,1152 4381.61,1166.34 4381.61,1184C4381.61,1201.66 4395.95,1216 4413.61,1216Z" style="fill-opacity:0.11;"/>
                </g>
                <g transform="matrix(0.266667,0,0,0.266667,-512.83,0)">
                    <path d="M4399.78,1152L4018.78,1152C4001.12,1152 3986.78,1137.66 3986.78,1120C3986.78,1102.34 4001.12,1088 4018.78,1088L4399.78,1088C4417.44,1088 4431.78,1102.34 4431.78,1120C4431.78,1137.66 4417.44,1152 4399.78,1152Z" style="fill-opacity:0.08;"/>
                </g>
                <g transform="matrix(0.266667,0,0,0.266667,-512.83,0)">
                    <path d="M4308.78,1024L4049.45,1024C4031.79,1024 4017.45,1009.66 4017.45,992C4017.45,974.339 4031.79,960 4049.45,960L4308.78,960C4326.44,960 4340.78,974.339 4340.78,992C4340.78,1009.66 4326.44,1024 4308.78,1024Z" style="fill-opacity:0.08;"/>
                </g>
                <g transform="matrix(0.266667,0,0,-0.268063,-207.23,347.499)">
                    <path d="M3337.11,341.333L2713.45,341.333C2695.79,341.333 2681.45,355.597 2681.45,373.167C2681.45,390.736 2695.79,405 2713.45,405L3337.11,405L3337.11,341.333Z" style="fill-opacity:0.08;"/>
                </g>
                <g transform="matrix(-0.266667,0,0,0.266667,1268.03,170.667)">
                    <path d="M3413.45,256C3431.11,256 3445.45,241.661 3445.45,224C3445.45,206.339 3431.11,192 3413.45,192L3475.11,192L3475.11,256L3413.45,256Z" style="fill-opacity:0.08;"/>
                </g>
                <g transform="matrix(0.266667,0,0,0.266667,-248.253,170.667)">
                    <path d="M3413.45,256C3431.11,256 3445.45,241.661 3445.45,224C3445.45,206.339 3431.11,192 3413.45,192L3490.95,192L3490.95,256L3413.45,256Z" style="fill-opacity:0.08;"/>
                </g>
                <g transform="matrix(0.266667,0,0,-0.268063,-59.4082,313.365)">
                    <path d="M2782.78,341.333L2713.45,341.333C2695.79,341.333 2681.45,355.597 2681.45,373.167C2681.45,390.736 2695.79,405 2713.45,405L2782.78,405L2782.78,341.333Z" style="fill-opacity:0.08;"/>
                </g>
                <g transform="matrix(0.266667,0,0,0.266667,-519.853,0)">
                    <path d="M4271.45,768L4010.78,768C3993.12,768 3978.78,753.661 3978.78,736C3978.78,718.339 3993.12,704 4010.78,704L4271.45,704C4289.11,704 4303.45,718.339 4303.45,736C4303.45,753.661 4289.11,768 4271.45,768Z" style="fill-opacity:0.08;"/>
                </g>
                <g transform="matrix(0.266667,0,0,0.266667,-502.164,0)">
                    <path d="M4402.78,640L4146.78,640C4129.12,640 4114.78,625.661 4114.78,608C4114.78,590.339 4129.12,576 4146.78,576L4402.78,576C4385.12,576 4370.78,590.339 4370.78,608C4370.78,625.661 4385.12,640 4402.78,640Z" style="fill-opacity:0.04;"/>
                </g>
                <g transform="matrix(0.266667,0,0,0.268063,-454.208,300.768)">
                    <path d="M3088.78,341.333L2713.45,341.333C2695.79,341.333 2681.45,355.597 2681.45,373.167C2681.45,390.736 2695.79,405 2713.45,405L3088.78,405L3088.78,341.333Z" style="fill-opacity:0.09;"/>
                </g>
                <g transform="matrix(0.266667,0,0,0.268063,-432.608,334.901)">
                    <path d="M3007.78,341.333L2713.45,341.333C2695.79,341.333 2681.45,355.597 2681.45,373.167C2681.45,390.736 2695.79,405 2713.45,405L3007.78,405L3007.78,341.333Z" style="fill-opacity:0.09;"/>
                </g>
                <g transform="matrix(-0.266667,0,0,0.268063,1159.14,369.301)">
                    <path d="M2889.78,341.333L2713.45,341.333C2695.79,341.333 2681.45,355.597 2681.45,373.167C2681.45,390.736 2695.79,405 2713.45,405L2889.78,405L2889.78,341.333Z" style="fill-opacity:0.06;"/>
                </g>
                <g transform="matrix(0.266667,0,0,0.266667,-615.097,358.133)">
                    <path d="M3218.45,256C3236.11,256 3250.45,270.339 3250.45,288C3250.45,305.661 3236.11,320 3218.45,320L3073.78,320C3056.12,320 3041.78,305.661 3041.78,288C3041.78,270.339 3056.12,256 3073.78,256L3218.45,256Z" style="fill-opacity:0.08;"/>
                </g>
                <g transform="matrix(0.266667,0,0,0.266667,-854.164,341.333)">
                    <path d="M3310.45,384L3613.45,384C3595.79,384 3581.45,398.339 3581.45,416C3581.45,433.661 3595.79,448 3613.45,448L3310.45,448C3328.11,448 3342.45,433.661 3342.45,416C3342.45,398.339 3328.11,384 3310.45,384Z" style="fill-opacity:0.04;"/>
                </g>
                <g transform="matrix(-0.266667,0,0,0.266667,1573.36,341.333)">
                    <path d="M4410.78,384C4393.12,384 4378.78,398.339 4378.78,416C4378.78,433.661 4393.12,448 4410.78,448L4049.45,448C4031.79,448 4017.45,433.661 4017.45,416C4017.45,398.339 4031.79,384 4049.45,384L4410.78,384Z" style="fill-opacity:0.06;"/>
                </g>
                <g transform="matrix(-0.266667,0,0,0.266667,1331.67,409.6)">
                    <path d="M3148.45,256C3166.11,256 3180.45,270.339 3180.45,288C3180.45,305.661 3166.11,320 3148.45,320L3073.78,320C3056.12,320 3041.78,305.661 3041.78,288C3041.78,270.339 3056.12,256 3073.78,256L3148.45,256Z" style="fill-opacity:0.06;"/>
                </g>
                <g transform="matrix(0.266667,0,0,0.266667,-826.03,392.267)">
                    <path d="M4321.45,128L4188.61,128C4206.27,128 4220.61,113.661 4220.61,96C4220.61,78.339 4206.27,64 4188.61,64L4321.45,64C4303.79,64 4289.45,78.339 4289.45,96C4289.45,113.661 4303.79,128 4321.45,128ZM4396.11,64L4483.11,64L4483.11,128L4396.11,128C4413.78,128 4428.11,113.661 4428.11,96C4428.11,78.339 4413.78,64 4396.11,64Z" style="fill-opacity:0.09;"/>
                </g>
                <g transform="matrix(0.266667,0,0,0.266667,-756.475,341.333)">
                    <path d="M3272.78,576L2836.78,576L2836.78,512L3272.78,512C3255.12,512 3240.78,526.339 3240.78,544C3240.78,561.661 3255.12,576 3272.78,576ZM3347.45,512L3476.78,512C3494.44,512 3508.78,526.339 3508.78,544C3508.78,561.661 3494.44,576 3476.78,576L3347.45,576C3365.11,576 3379.45,561.661 3379.45,544C3379.45,526.339 3365.11,512 3347.45,512Z" style="fill-opacity:0.04;"/>
                </g>
                <g transform="matrix(-0.266667,0,0,0.266667,1346.65,426.667)">
                    <path d="M3413.45,256C3431.11,256 3445.45,241.661 3445.45,224C3445.45,206.339 3431.11,192 3413.45,192L3592.95,192L3592.95,256L3413.45,256Z" style="fill-opacity:0.06;"/>
                </g>
                <g transform="matrix(-0.266667,0,0,-0.268063,888.83,569.365)">
                    <path d="M3333.11,341.333L2713.45,341.333C2695.79,341.333 2681.45,355.597 2681.45,373.167C2681.45,390.736 2695.79,405 2713.45,405L3333.11,405L3333.11,341.333Z" style="fill-opacity:0.04;"/>
                </g>
                <g transform="matrix(-0.266667,0,0,-0.268063,873.364,535.232)">
                    <path d="M3275.11,341.333L2713.45,341.333C2695.79,341.333 2681.45,355.597 2681.45,373.167C2681.45,390.736 2695.79,405 2713.45,405L3275.11,405L3275.11,341.333Z" style="fill-opacity:0.04;"/>
                </g>
                <g transform="matrix(-0.266667,0,0,-0.268063,850.364,518.165)">
                    <path d="M3188.86,341.333L2713.45,341.333C2695.79,341.333 2681.45,355.597 2681.45,373.167C2681.45,390.736 2695.79,405 2713.45,405L3188.86,405L3188.86,341.333Z" style="fill-opacity:0.04;"/>
                </g>
                <g transform="matrix(-0.266667,0,0,-0.268063,778.075,484.032)">
                    <path d="M2917.78,341.333L2713.45,341.333C2695.79,341.333 2681.45,355.597 2681.45,373.167C2681.45,390.736 2695.79,405 2713.45,405L2917.78,405L2917.78,341.333Z" style="fill-opacity:0.04;"/>
                </g>
                <g transform="matrix(-0.266667,0,0,-0.268063,832.208,466.965)">
                    <path d="M3120.78,341.333L2713.45,341.333C2695.79,341.333 2681.45,355.597 2681.45,373.167C2681.45,390.736 2695.79,405 2713.45,405L3120.78,405L3120.78,341.333Z" style="fill-opacity:0.04;"/>
                </g>
                <g transform="matrix(0.266667,0,0,0.266667,-657.897,238.933)">
                    <path d="M2542.11,384C2524.45,384 2510.11,398.339 2510.11,416C2510.11,433.661 2524.45,448 2542.11,448L2467.11,448L2467.11,384L2542.11,384Z" style="fill-opacity:0.04;"/>
                </g>
                <g transform="matrix(-0.266667,0,0,0.268063,806.875,454.635)">
                    <path d="M3025.78,341.333L2713.45,341.333C2695.79,341.333 2681.45,355.597 2681.45,373.167C2681.45,390.736 2695.79,405 2713.45,405L3025.78,405L3025.78,341.333Z" style="fill-opacity:0.08;"/>
                </g>
                <g transform="matrix(-0.266667,0,0,0.268063,744.742,488.768)">
                    <path d="M2792.78,341.333L2713.45,341.333C2695.79,341.333 2681.45,355.597 2681.45,373.167C2681.45,390.736 2695.79,405 2713.45,405L2792.78,405L2792.78,341.333Z" style="fill-opacity:0.08;"/>
                </g>
                <g transform="matrix(0.266667,0,0,0.266667,-870.164,341.333)">
                    <path d="M3794.11,960C3811.78,960 3826.11,974.339 3826.11,992C3826.11,1009.66 3811.78,1024 3794.11,1024L3498.45,1024C3480.79,1024 3466.45,1009.66 3466.45,992C3466.45,974.339 3480.79,960 3498.45,960L3794.11,960Z" style="fill-opacity:0.08;"/>
                </g>
                <g transform="matrix(0.266667,0,0,0.266667,-786.43,341.333)">
                    <path d="M3613.11,1088C3630.78,1088 3645.11,1102.34 3645.11,1120C3645.11,1137.66 3630.78,1152 3613.11,1152L3364.11,1152C3346.45,1152 3332.11,1137.66 3332.11,1120C3332.11,1102.34 3346.45,1088 3364.11,1088L3613.11,1088Z" style="fill-opacity:0.08;"/>
                </g>
                <g transform="matrix(0.266667,0,0,0.266667,-847.497,341.333)">
                    <path d="M3613.11,1024L3920.45,1024C3938.11,1024 3952.45,1038.34 3952.45,1056C3952.45,1073.66 3938.11,1088 3920.45,1088L3613.11,1088C3630.78,1088 3645.11,1073.66 3645.11,1056C3645.11,1038.34 3630.78,1024 3613.11,1024Z" style="fill-opacity:0.08;"/>
                </g>
                <g transform="matrix(0.266667,0,0,0.266667,-720.63,341.333)">
                    <path d="M3552.78,1216L3275.95,1216C3258.29,1216 3243.95,1201.66 3243.95,1184C3243.95,1166.34 3258.29,1152 3275.95,1152L3552.78,1152C3535.12,1152 3520.78,1166.34 3520.78,1184C3520.78,1201.66 3535.12,1216 3552.78,1216Z" style="fill-opacity:0.11;"/>
                </g>
                <g transform="matrix(0.266667,0,0,0.266667,-810.875,341.333)">
                    <path d="M4308.78,1024L4049.45,1024C4031.79,1024 4017.45,1009.66 4017.45,992C4017.45,974.339 4031.79,960 4049.45,960L4308.78,960C4326.44,960 4340.78,974.339 4340.78,992C4340.78,1009.66 4326.44,1024 4308.78,1024Z" style="fill-opacity:0.08;"/>
                </g>
                <g transform="matrix(0.266667,0,0,-0.268063,-548.564,688.832)">
                    <path d="M3337.11,341.333L2713.45,341.333C2695.79,341.333 2681.45,355.597 2681.45,373.167C2681.45,390.736 2695.79,405 2713.45,405L3337.11,405L3337.11,341.333Z" style="fill-opacity:0.08;"/>
                </g>
                <g transform="matrix(-0.266667,0,0,0.266667,926.697,512)">
                    <path d="M3413.45,256C3431.11,256 3445.45,241.661 3445.45,224C3445.45,206.339 3431.11,192 3413.45,192L3475.11,192L3475.11,256L3413.45,256Z" style="fill-opacity:0.08;"/>
                </g>
                <g transform="matrix(0.266667,0,0,0.266667,-976.208,0)">
                    <path d="M4413.78,2112C4396.12,2112 4381.78,2097.66 4381.78,2080C4381.78,2062.34 4396.12,2048 4413.78,2048L4795.45,2048C4813.11,2048 4827.45,2062.34 4827.45,2080C4827.45,2097.66 4813.11,2112 4795.45,2112L4544.78,2112C4527.12,2112 4512.78,2126.34 4512.78,2144C4512.78,2161.66 4527.12,2176 4544.78,2176L4405.61,2176C4423.28,2176 4437.61,2161.66 4437.61,2144C4437.61,2126.34 4423.28,2112 4405.61,2112L4413.78,2112Z" style="fill-opacity:0.08;"/>
                </g>
                <g transform="matrix(0.266667,0,0,0.266667,-800.919,341.333)">
                    <path d="M4271.45,768L4010.78,768C3993.12,768 3978.78,753.661 3978.78,736C3978.78,718.339 3993.12,704 4010.78,704L4271.45,704C4289.11,704 4303.45,718.339 4303.45,736C4303.45,753.661 4289.11,768 4271.45,768Z" style="fill-opacity:0.08;"/>
                </g>
                <g transform="matrix(0.266667,0,0,0.266667,-843.497,341.333)">
                    <path d="M4402.78,640L4146.78,640C4129.12,640 4114.78,625.661 4114.78,608C4114.78,590.339 4129.12,576 4146.78,576L4402.78,576C4385.12,576 4370.78,590.339 4370.78,608C4370.78,625.661 4385.12,640 4402.78,640Z" style="fill-opacity:0.06;"/>
                </g>
                <g transform="matrix(0.266667,0,0,0.268063,-141.008,249.835)">
                    <path d="M3088.78,341.333L2713.45,341.333C2695.79,341.333 2681.45,355.597 2681.45,373.167C2681.45,390.736 2695.79,405 2713.45,405L3088.78,405L3088.78,341.333Z" style="fill-opacity:0.04;"/>
                </g>
                <g transform="matrix(0.266667,0,0,0.268063,-119.408,283.968)">
                    <path d="M3007.78,341.333L2713.45,341.333C2695.79,341.333 2681.45,355.597 2681.45,373.167C2681.45,390.736 2695.79,405 2713.45,405L3007.78,405L3007.78,341.333Z" style="fill-opacity:0.04;"/>
                </g>
                <g transform="matrix(0.266667,0,0,0.268063,-75.9415,318.101)">
                    <path d="M2844.78,341.333L2713.45,341.333C2695.79,341.333 2681.45,355.597 2681.45,373.167C2681.45,390.736 2695.79,405 2713.45,405L2844.78,405L2844.78,341.333Z" style="fill-opacity:0.04;"/>
                </g>
                <g transform="matrix(0.266667,0,0,0.268063,-112.208,335.168)">
                    <path d="M2980.78,341.333L2713.45,341.333C2695.79,341.333 2681.45,355.597 2681.45,373.167C2681.45,390.736 2695.79,405 2713.45,405L2980.78,405L2980.78,341.333Z" style="fill-opacity:0.04;"/>
                </g>
                <g transform="matrix(0.266667,0,0,0.268063,-87.9415,369.301)">
                    <path d="M2889.78,341.333L2713.45,341.333C2695.79,341.333 2681.45,355.597 2681.45,373.167C2681.45,390.736 2695.79,405 2713.45,405L2889.78,405L2889.78,341.333Z" style="fill-opacity:0.04;"/>
                </g>
                <g transform="matrix(0.266667,0,0,0.266667,-301.897,307.2)">
                    <path d="M3218.45,256C3236.11,256 3250.45,270.339 3250.45,288C3250.45,305.661 3236.11,320 3218.45,320L3073.78,320C3056.12,320 3041.78,305.661 3041.78,288C3041.78,270.339 3056.12,256 3073.78,256L3218.45,256Z" style="fill-opacity:0.04;"/>
                </g>
                <g transform="matrix(-0.266667,0,0,0.266667,1242.7,341.333)">
                    <path d="M3310.45,384L3613.45,384C3595.79,384 3581.45,398.339 3581.45,416C3581.45,433.661 3595.79,448 3613.45,448L3310.45,448C3328.11,448 3342.45,433.661 3342.45,416C3342.45,398.339 3328.11,384 3310.45,384Z" style="fill-opacity:0.06;"/>
                </g>
                <g transform="matrix(0.266667,0,0,0.266667,-502.164,341.333)">
                    <path d="M4410.78,384C4393.12,384 4378.78,398.339 4378.78,416C4378.78,433.661 4393.12,448 4410.78,448L4049.45,448C4031.79,448 4017.45,433.661 4017.45,416C4017.45,398.339 4031.79,384 4049.45,384L4410.78,384Z" style="fill-opacity:0.04;"/>
                </g>
                <g transform="matrix(0.266667,0,0,0.266667,-512.83,341.333)">
                    <path d="M4262.78,1024C4245.12,1024 4230.78,1038.34 4230.78,1056C4230.78,1073.66 4245.12,1088 4262.78,1088L4086.11,1088C4103.77,1088 4118.11,1073.66 4118.11,1056C4118.11,1038.34 4103.77,1024 4086.11,1024L4262.78,1024Z" style="fill-opacity:0.08;"/>
                </g>
                <g transform="matrix(0.266667,0,0,0.266667,-260.475,409.6)">
                    <path d="M3148.45,256C3166.11,256 3180.45,270.339 3180.45,288C3180.45,305.661 3166.11,320 3148.45,320L3073.78,320C3056.12,320 3041.78,305.661 3041.78,288C3041.78,270.339 3056.12,256 3073.78,256L3148.45,256Z" style="fill-opacity:0.04;"/>
                </g>
                <g transform="matrix(0.266667,0,0,0.266667,-512.83,341.333)">
                    <path d="M4321.45,128L4188.61,128C4206.27,128 4220.61,113.661 4220.61,96C4220.61,78.339 4206.27,64 4188.61,64L4321.45,64C4303.79,64 4289.45,78.339 4289.45,96C4289.45,113.661 4303.79,128 4321.45,128ZM4396.11,64L4483.11,64L4483.11,128L4396.11,128C4413.78,128 4428.11,113.661 4428.11,96C4428.11,78.339 4413.78,64 4396.11,64Z" style="fill-opacity:0.04;"/>
                </g>
                <g transform="matrix(-0.266667,0,0,0.266667,1145.01,341.333)">
                    <path d="M3272.78,576L2836.78,576L2836.78,512L3272.78,512C3255.12,512 3240.78,526.339 3240.78,544C3240.78,561.661 3255.12,576 3272.78,576ZM3347.45,512L3476.78,512C3494.44,512 3508.78,526.339 3508.78,544C3508.78,561.661 3494.44,576 3476.78,576L3347.45,576C3365.11,576 3379.45,561.661 3379.45,544C3379.45,526.339 3365.11,512 3347.45,512Z" style="fill-opacity:0.06;"/>
                </g>
                <g transform="matrix(0.266667,0,0,0.266667,-275.453,426.667)">
                    <path d="M3413.45,256C3431.11,256 3445.45,241.661 3445.45,224C3445.45,206.339 3431.11,192 3413.45,192L3592.95,192L3592.95,256L3413.45,256Z" style="fill-opacity:0.04;"/>
                </g>
                <g transform="matrix(0.266667,0,0,0.266667,-455.142,341.333)">
                    <path d="M3640.45,640L3347.95,640C3330.29,640 3315.95,625.661 3315.95,608C3315.95,590.339 3330.29,576 3347.95,576L3640.45,576C3658.11,576 3672.45,590.339 3672.45,608C3672.45,625.661 3658.11,640 3640.45,640Z" style="fill-opacity:0.06;"/>
                </g>
                <g transform="matrix(0.266667,0,0,-0.268063,-500.297,569.365)">
                    <path d="M3333.11,341.333L2713.45,341.333C2695.79,341.333 2681.45,355.597 2681.45,373.167C2681.45,390.736 2695.79,405 2713.45,405L3333.11,405L3333.11,341.333Z" style="fill-opacity:0.06;"/>
                </g>
                <g transform="matrix(0.266667,0,0,0.266667,-239.23,341.333)">
                    <path d="M3413.45,256C3431.11,256 3445.45,241.661 3445.45,224C3445.45,206.339 3431.11,192 3413.45,192L3457.11,192L3457.11,256L3413.45,256Z" style="fill-opacity:0.04;"/>
                </g>
                <g transform="matrix(-0.266667,0,0,-0.268063,1147.54,534.965)">
                    <path d="M2917.78,341.333L2713.45,341.333C2695.79,341.333 2681.45,355.597 2681.45,373.167C2681.45,390.736 2695.79,405 2713.45,405L2917.78,405L2917.78,341.333Z" style="fill-opacity:0.09;"/>
                </g>
                <g transform="matrix(0.266667,0,0,0.266667,-288.43,289.867)">
                    <path d="M2542.11,384C2524.45,384 2510.11,398.339 2510.11,416C2510.11,433.661 2524.45,448 2542.11,448L2467.11,448L2467.11,384L2542.11,384Z" style="fill-opacity:0.09;"/>
                </g>
                <g transform="matrix(-0.266667,0,0,0.268063,1086.07,488.768)">
                    <path d="M2792.78,341.333L2713.45,341.333C2695.79,341.333 2681.45,355.597 2681.45,373.167C2681.45,390.736 2695.79,405 2713.45,405L2792.78,405L2792.78,341.333Z" style="fill-opacity:0.08;"/>
                </g>
                <g transform="matrix(0.266667,0,0,0.266667,-528.83,341.333)">
                    <path d="M3794.11,960C3811.78,960 3826.11,974.339 3826.11,992C3826.11,1009.66 3811.78,1024 3794.11,1024L3498.45,1024C3480.79,1024 3466.45,1009.66 3466.45,992C3466.45,974.339 3480.79,960 3498.45,960L3794.11,960Z" style="fill-opacity:0.04;"/>
                </g>
                <g transform="matrix(0.266667,0,0,0.266667,-458.742,341.333)">
                    <path d="M3613.11,1088C3630.78,1088 3645.11,1102.34 3645.11,1120C3645.11,1137.66 3630.78,1152 3613.11,1152L3364.11,1152C3346.45,1152 3332.11,1137.66 3332.11,1120C3332.11,1102.34 3346.45,1088 3364.11,1088L3613.11,1088Z" style="fill-opacity:0.04;"/>
                </g>
                <g transform="matrix(0.266667,0,0,0.266667,-528.83,341.333)">
                    <path d="M3613.11,1024L3920.45,1024C3938.11,1024 3952.45,1038.34 3952.45,1056C3952.45,1073.66 3938.11,1088 3920.45,1088L3613.11,1088C3630.78,1088 3645.11,1073.66 3645.11,1056C3645.11,1038.34 3630.78,1024 3613.11,1024Z" style="fill-opacity:0.04;"/>
                </g>
                <g transform="matrix(0.266667,0,0,0.266667,-464.075,341.333)">
                    <path d="M3552.78,1216L3275.95,1216C3258.29,1216 3243.95,1201.66 3243.95,1184C3243.95,1166.34 3258.29,1152 3275.95,1152L3552.78,1152C3535.12,1152 3520.78,1166.34 3520.78,1184C3520.78,1201.66 3535.12,1216 3552.78,1216Z" style="fill-opacity:0.04;"/>
                </g>
                <g transform="matrix(-0.266667,0,0,0.266667,1230.61,597.333)">
                    <path d="M3148.45,256C3166.11,256 3180.45,270.339 3180.45,288C3180.45,305.661 3166.11,320 3148.45,320L3073.78,320C3056.12,320 3041.78,305.661 3041.78,288C3041.78,270.339 3056.12,256 3073.78,256L3148.45,256Z" style="fill-opacity:0.04;"/>
                </g>
                <g transform="matrix(0.266667,0,0,0.266667,-512.83,341.333)">
                    <path d="M4413.61,1216L4227.28,1216C4244.94,1216 4259.28,1201.66 4259.28,1184C4259.28,1166.34 4244.94,1152 4227.28,1152L4413.61,1152C4395.95,1152 4381.61,1166.34 4381.61,1184C4381.61,1201.66 4395.95,1216 4413.61,1216Z" style="fill-opacity:0.11;"/>
                </g>
                <g transform="matrix(0.266667,0,0,0.266667,-512.83,341.333)">
                    <path d="M4399.78,1152L4018.78,1152C4001.12,1152 3986.78,1137.66 3986.78,1120C3986.78,1102.34 4001.12,1088 4018.78,1088L4399.78,1088C4417.44,1088 4431.78,1102.34 4431.78,1120C4431.78,1137.66 4417.44,1152 4399.78,1152Z" style="fill-opacity:0.08;"/>
                </g>
                <g transform="matrix(0.266667,0,0,0.266667,-512.83,341.333)">
                    <path d="M4308.78,1024L4049.45,1024C4031.79,1024 4017.45,1009.66 4017.45,992C4017.45,974.339 4031.79,960 4049.45,960L4308.78,960C4326.44,960 4340.78,974.339 4340.78,992C4340.78,1009.66 4326.44,1024 4308.78,1024Z" style="fill-opacity:0.08;"/>
                </g>
                <g transform="matrix(0.266667,0,0,-0.268063,-207.23,688.832)">
                    <path d="M3337.11,341.333L2713.45,341.333C2695.79,341.333 2681.45,355.597 2681.45,373.167C2681.45,390.736 2695.79,405 2713.45,405L3337.11,405L3337.11,341.333Z" style="fill-opacity:0.08;"/>
                </g>
                <g transform="matrix(0.266667,0,0,0.266667,-248.253,512)">
                    <path d="M3413.45,256C3431.11,256 3445.45,241.661 3445.45,224C3445.45,206.339 3431.11,192 3413.45,192L3490.95,192L3490.95,256L3413.45,256Z" style="fill-opacity:0.08;"/>
                </g>
                <g transform="matrix(0.266667,0,0,-0.268063,-59.4082,654.699)">
                    <path d="M2782.78,341.333L2713.45,341.333C2695.79,341.333 2681.45,355.597 2681.45,373.167C2681.45,390.736 2695.79,405 2713.45,405L2782.78,405L2782.78,341.333Z" style="fill-opacity:0.08;"/>
                </g>
                <g transform="matrix(0.266667,0,0,0.266667,-519.853,341.333)">
                    <path d="M4271.45,768L4010.78,768C3993.12,768 3978.78,753.661 3978.78,736C3978.78,718.339 3993.12,704 4010.78,704L4271.45,704C4289.11,704 4303.45,718.339 4303.45,736C4303.45,753.661 4289.11,768 4271.45,768Z" style="fill-opacity:0.08;"/>
                </g>
                <g transform="matrix(0.266667,0,0,0.266667,-471.186,477.867)">
                    <path d="M4271.45,768L4010.78,768C3993.12,768 3978.78,753.661 3978.78,736C3978.78,718.339 3993.12,704 4010.78,704L4271.45,704C4289.11,704 4303.45,718.339 4303.45,736C4303.45,753.661 4289.11,768 4271.45,768Z" style="fill-opacity:0.11;"/>
                </g>
                <g transform="matrix(0.266667,0,0,0.266667,-502.164,341.333)">
                    <path d="M4402.78,640L4146.78,640C4129.12,640 4114.78,625.661 4114.78,608C4114.78,590.339 4129.12,576 4146.78,576L4402.78,576C4385.12,576 4370.78,590.339 4370.78,608C4370.78,625.661 4385.12,640 4402.78,640Z" style="fill-opacity:0.04;"/>
                </g>
                <g transform="matrix(-0.266667,0,0,0.266667,935.719,1.06108e-13)">
                    <path d="M3413.45,256C3431.11,256 3445.45,241.661 3445.45,224C3445.45,206.339 3431.11,192 3413.45,192L3915.11,192L3915.11,256L3413.45,256Z" style="fill-opacity:0.04;"/>
                </g>
            </g>
        </g>
    </g>
</svg>
