<?xml version="1.0" encoding="UTF-8" standalone="no"?>
<!DOCTYPE svg PUBLIC "-//W3C//DTD SVG 1.1//EN" "http://www.w3.org/Graphics/SVG/1.1/DTD/svg11.dtd">
<svg width="100%" height="100%" viewBox="0 0 48 28" version="1.1"
    xmlns="http://www.w3.org/2000/svg"
    xmlns:xlink="http://www.w3.org/1999/xlink" xml:space="preserve" style="fill-rule:evenodd;clip-rule:evenodd;stroke-linecap:round;stroke-linejoin:round;stroke-miterlimit:1.5;">
    <g id="oneOf" transform="matrix(1,0,0,1.16667,0,2.22045e-15)">
        <rect x="0" y="0" width="48" height="24" style="fill:none;"/>
        <clipPath id="_clip1">
            <rect x="0" y="0" width="48" height="24"/>
        </clipPath>
        <g clip-path="url(#_clip1)">
            <g id="cardinality-mandatory-many" transform="matrix(3.2,0,0,1.37143,0,1.71429)">
                <rect x="0" y="0" width="15" height="15" style="fill:none;"/>
            </g>
            <g transform="matrix(0.833333,0,0,0.714286,15.25,-1.07143)">
                <circle cx="10.5" cy="7.5" r="3" style="stroke:rgb(221,221,221);stroke-width:2.4px;"/>
            </g>
            <g transform="matrix(0.833333,0,0,0.714286,15.25,6.64286)">
                <circle cx="10.5" cy="7.5" r="3" style="fill:none;stroke:rgb(221,221,221);stroke-width:2.4px;"/>
            </g>
            <g transform="matrix(0.833333,0,0,0.714286,15.25,14.3571)">
                <circle cx="10.5" cy="7.5" r="3" style="fill:none;stroke:rgb(221,221,221);stroke-width:2.4px;"/>
            </g>
            <g transform="matrix(-1.03226,0,0,1.16327,48.5161,-1.95918)">
                <path d="M0.5,12C17.333,11.728 5.999,5.185 21,5" style="fill:none;stroke:rgb(221,221,221);stroke-width:1.66px;"/>
            </g>
            <g transform="matrix(-1.03659,2.6151e-17,3.05095e-17,-1.10204,48.5183,25.2245)">
                <path d="M0.5,12C17.333,11.728 5.999,5.185 21,5" style="fill:none;stroke:rgb(221,221,221);stroke-width:1.71px;"/>
            </g>
            <g transform="matrix(1,0,0,0.857143,0,1.71429)">
                <path d="M26.5,12L47,12" style="fill:none;stroke:rgb(221,221,221);stroke-width:2px;"/>
            </g>
            <g transform="matrix(1,0,0,0.857143,-25.5,1.71429)">
                <path d="M26.5,12L47,12" style="fill:none;stroke:rgb(221,221,221);stroke-width:2px;"/>
            </g>
        </g>
    </g>
</svg>
