<?xml version="1.0" encoding="UTF-8" standalone="no"?>
<!DOCTYPE svg PUBLIC "-//W3C//DTD SVG 1.1//EN" "http://www.w3.org/Graphics/SVG/1.1/DTD/svg11.dtd">
<svg width="100%" height="100%" viewBox="0 0 16 16" version="1.1"
    xmlns="http://www.w3.org/2000/svg"
    xmlns:xlink="http://www.w3.org/1999/xlink" xml:space="preserve" style="fill-rule:evenodd;clip-rule:evenodd;stroke-linejoin:round;stroke-miterlimit:2;">
    <g transform="matrix(0.882131,0,0,0.77447,-2.1935,9.20393)">
        <g>
            <path d="M7.804,-3.299C7.74,-3.299 7.688,-3.317 7.648,-3.353C7.608,-3.389 7.588,-3.439 7.588,-3.503L7.588,-4.511C7.588,-4.655 7.66,-4.727 7.804,-4.727L8.692,-4.727C8.756,-4.727 8.804,-4.707 8.836,-4.667C8.868,-4.627 8.884,-4.575 8.884,-4.511L8.884,-3.503C8.884,-3.367 8.82,-3.299 8.692,-3.299L7.804,-3.299ZM7.636,-2.219L8.836,-2.219L8.836,4.201L7.636,4.201L7.636,-2.219Z" style="fill:rgb(255,206,0);fill-rule:nonzero;"/>
            <path d="M6.896,-2.786C6.8,-2.624 6.744,-2.429 6.744,-2.219L6.744,4.201C6.744,4.762 7.143,5.216 7.636,5.216L8.836,5.216C9.328,5.216 9.728,4.762 9.728,4.201L9.728,-2.219C9.728,-2.427 9.673,-2.62 9.579,-2.78C9.698,-2.965 9.776,-3.2 9.776,-3.503L9.776,-4.511C9.776,-4.859 9.669,-5.134 9.495,-5.351C9.313,-5.579 9.056,-5.743 8.692,-5.743L7.804,-5.743C7.464,-5.743 7.224,-5.607 7.054,-5.437C6.844,-5.227 6.696,-4.931 6.696,-4.511L6.696,-3.503C6.696,-3.218 6.767,-2.981 6.896,-2.786ZM7.636,-2.219L8.836,-2.219L8.836,4.201L7.636,4.201L7.636,-2.219ZM7.804,-3.299C7.74,-3.299 7.688,-3.317 7.648,-3.353C7.608,-3.389 7.588,-3.439 7.588,-3.503L7.588,-4.511C7.588,-4.655 7.66,-4.727 7.804,-4.727L8.692,-4.727C8.756,-4.727 8.804,-4.707 8.836,-4.667C8.868,-4.627 8.884,-4.575 8.884,-4.511L8.884,-3.503C8.884,-3.367 8.82,-3.299 8.692,-3.299L7.804,-3.299Z" style="fill:rgb(143,93,0);"/>
            <path d="M13.888,1.081L16.072,4.201L14.272,4.201L12.856,2.173L11.584,4.201L9.784,4.201L11.968,0.889L9.784,-2.243L11.572,-2.243L13,-0.203L14.272,-2.243L16.072,-2.243L13.888,1.081Z" style="fill:rgb(255,206,0);fill-rule:nonzero;"/>
            <path d="M15.014,1.061L16.786,-1.635C16.988,-1.943 17.02,-2.354 16.869,-2.698C16.718,-3.042 16.409,-3.259 16.072,-3.259L14.272,-3.259C13.983,-3.259 13.712,-3.1 13.545,-2.831L12.959,-1.891C12.959,-1.891 12.269,-2.876 12.269,-2.876C12.1,-3.118 11.843,-3.259 11.572,-3.259L9.784,-3.259C9.442,-3.259 9.13,-3.036 8.981,-2.685C8.832,-2.334 8.873,-1.917 9.086,-1.612L10.841,0.906C10.841,0.906 9.071,3.591 9.071,3.591C8.868,3.898 8.835,4.31 8.986,4.655C9.137,4.999 9.446,5.216 9.784,5.216L11.584,5.216C11.872,5.216 12.142,5.058 12.309,4.791L12.894,3.859C12.894,3.859 13.574,4.833 13.574,4.833C13.743,5.075 14,5.216 14.272,5.216L16.072,5.216C16.414,5.216 16.727,4.993 16.875,4.641C17.024,4.29 16.983,3.873 16.769,3.568L15.014,1.061ZM13.888,1.081L16.072,4.201L14.272,4.201L12.856,2.173L11.584,4.201L9.784,4.201L11.968,0.889L9.784,-2.243L11.572,-2.243L13,-0.203L14.272,-2.243L16.072,-2.243L13.888,1.081Z" style="fill:rgb(143,93,0);"/>
        </g>
    </g>
</svg>
