<?xml version="1.0" encoding="UTF-8" standalone="no"?>
<!DOCTYPE svg PUBLIC "-//W3C//DTD SVG 1.1//EN" "http://www.w3.org/Graphics/SVG/1.1/DTD/svg11.dtd">
<svg width="100%" height="100%" viewBox="0 0 16 16" version="1.1"
    xmlns="http://www.w3.org/2000/svg"
    xmlns:xlink="http://www.w3.org/1999/xlink" xml:space="preserve" style="fill-rule:evenodd;clip-rule:evenodd;stroke-linejoin:round;stroke-miterlimit:2;">
    <g id="pfk" transform="matrix(1,0,0,1,0,-144)">
        <g transform="matrix(0.888889,0,0,0.888889,-2.88889,145.333)">
            <circle cx="14.5" cy="7.5" r="4.5" style="fill:rgb(255,206,0);"/>
            <path d="M14.5,1.875C11.395,1.875 8.875,4.395 8.875,7.5C8.875,10.605 11.395,13.125 14.5,13.125C17.605,13.125 20.125,10.605 20.125,7.5C20.125,4.395 17.605,1.875 14.5,1.875ZM14.5,3C16.984,3 19,5.016 19,7.5C19,9.984 16.984,12 14.5,12C12.016,12 10,9.984 10,7.5C10,5.016 12.016,3 14.5,3Z" style="fill:rgb(171,85,20);"/>
        </g>
        <g transform="matrix(0.888889,0,0,0.888889,-6.88889,145.333)">
            <circle cx="14.5" cy="7.5" r="4.5" style="fill:rgb(255,206,0);"/>
            <path d="M14.5,1.875C11.395,1.875 8.875,4.395 8.875,7.5C8.875,10.605 11.395,13.125 14.5,13.125C17.605,13.125 20.125,10.605 20.125,7.5C20.125,4.395 17.605,1.875 14.5,1.875ZM14.5,3C16.984,3 19,5.016 19,7.5C19,9.984 16.984,12 14.5,12C12.016,12 10,9.984 10,7.5C10,5.016 12.016,3 14.5,3Z" style="fill:rgb(171,85,20);"/>
        </g>
        <g transform="matrix(0.888889,0,0,0.888889,-2.88889,145.333)">
            <path d="M14.5,1.875C11.395,1.875 8.875,4.395 8.875,7.5C8.875,10.605 11.395,13.125 14.5,13.125C17.605,13.125 20.125,10.605 20.125,7.5C20.125,4.395 17.605,1.875 14.5,1.875ZM14.5,3C16.984,3 19,5.016 19,7.5C19,9.984 16.984,12 14.5,12C12.016,12 10,9.984 10,7.5C10,5.016 12.016,3 14.5,3Z" style="fill:rgb(171,85,20);"/>
        </g>
    </g>
</svg>
