<?xml version="1.0" encoding="UTF-8" standalone="no"?>
<!DOCTYPE svg PUBLIC "-//W3C//DTD SVG 1.1//EN" "http://www.w3.org/Graphics/SVG/1.1/DTD/svg11.dtd">
<svg width="100%" height="100%" viewBox="0 0 16 16" version="1.1"
    xmlns="http://www.w3.org/2000/svg"
    xmlns:xlink="http://www.w3.org/1999/xlink" xml:space="preserve" style="fill-rule:evenodd;clip-rule:evenodd;stroke-linejoin:round;stroke-miterlimit:2;">
    <g transform="matrix(1,0,0,1,0,1)">
        <g id="pfk">
            <path d="M9.025,7.5C9.276,4.975 11.409,3 14,3L14,4C11.792,4 10,5.792 10,8C10,10.208 11.792,12 14,12L14,13C11.409,13 9.276,11.025 9.025,8.5L2,8.5L2,7.5L9.025,7.5Z" style="fill:rgb(255,206,0);"/>
            <path d="M8.19,6.5C8.857,3.914 11.206,2 14,2C14.552,2 15,2.448 15,3L15,4C15,4.552 14.552,5 14,5C12.344,5 11,6.344 11,8C11,8 10,8 10,8L11,8C11,9.656 12.344,11 14,11C14.552,11 15,11.448 15,12L15,13C15,13.552 14.552,14 14,14C11.206,14 8.857,12.086 8.19,9.5L2,9.5C1.448,9.5 1,9.052 1,8.5L1,7.5C1,6.948 1.448,6.5 2,6.5L8.19,6.5ZM9.025,7.5C9.276,4.975 11.409,3 14,3L14,4C11.792,4 10,5.792 10,8C10,10.208 11.792,12 14,12L14,13C11.409,13 9.276,11.025 9.025,8.5L2,8.5L2,7.5L9.025,7.5Z" style="fill:rgb(171,85,20);"/>
        </g>
    </g>
</svg>
