<?xml version="1.0" encoding="UTF-8" standalone="no"?>
<!DOCTYPE svg PUBLIC "-//W3C//DTD SVG 1.1//EN" "http://www.w3.org/Graphics/SVG/1.1/DTD/svg11.dtd">
<svg width="100%" height="100%" viewBox="0 0 16 16" version="1.1"
    xmlns="http://www.w3.org/2000/svg"
    xmlns:xlink="http://www.w3.org/1999/xlink" xml:space="preserve" style="fill-rule:evenodd;clip-rule:evenodd;stroke-linecap:square;stroke-miterlimit:1.5;">
    <g id="pfk" transform="matrix(1,0,0,1,0,-144)">
        <g transform="matrix(1.25,0,0,1,-0.375,145.5)">
            <path d="M1.5,4L5.5,4" style="fill:none;stroke:rgb(250,164,0);stroke-width:0.88px;"/>
        </g>
        <g transform="matrix(6.12323e-17,1,-1,6.12323e-17,5.5,148.5)">
            <path d="M1.5,4L6.5,4" style="fill:none;stroke:rgb(250,164,0);stroke-width:1px;"/>
        </g>
        <g transform="matrix(1.25,0,0,1,-0.375,151.5)">
            <path d="M1.5,4L5.5,4" style="fill:none;stroke:rgb(250,164,0);stroke-width:0.88px;"/>
        </g>
        <g transform="matrix(-1.25,0,0,1,16.375,145.5)">
            <path d="M1.5,4L5.5,4" style="fill:none;stroke:rgb(250,164,0);stroke-width:0.88px;"/>
        </g>
        <g transform="matrix(-6.12323e-17,1,1,6.12323e-17,10.5,148.5)">
            <path d="M1.5,4L6.5,4" style="fill:none;stroke:rgb(250,164,0);stroke-width:1px;"/>
        </g>
        <g transform="matrix(-1.25,0,0,1,16.375,151.5)">
            <path d="M1.5,4L5.5,4" style="fill:none;stroke:rgb(250,164,0);stroke-width:0.88px;"/>
        </g>
        <g transform="matrix(1.1,0,0,1,2.85,148.5)">
            <path d="M1.5,4L7.864,4" style="fill:none;stroke:rgb(250,164,0);stroke-width:0.95px;"/>
        </g>
    </g>
</svg>
