<?xml version="1.0" encoding="UTF-8" standalone="no"?>
<!DOCTYPE svg PUBLIC "-//W3C//DTD SVG 1.1//EN" "http://www.w3.org/Graphics/SVG/1.1/DTD/svg11.dtd">
<svg width="100%" height="100%" viewBox="0 0 16 16" version="1.1"
    xmlns="http://www.w3.org/2000/svg"
    xmlns:xlink="http://www.w3.org/1999/xlink" xml:space="preserve" style="fill-rule:evenodd;clip-rule:evenodd;stroke-linejoin:round;stroke-miterlimit:1.41421;">
    <g transform="matrix(1,0,0,1,0,-138)">
        <g id="pk" transform="matrix(1,0,0,1,1.42109e-14,-6)">
            <rect x="0" y="144" width="16" height="16" style="fill:none;"/>
            <clipPath id="_clip1">
                <rect x="0" y="144" width="16" height="16"/>
            </clipPath>
            <g clip-path="url(#_clip1)">
                <g transform="matrix(1.22222,0,0,1,-1.22222,7)">
                    <rect x="1" y="144" width="9" height="1" style="fill:rgb(143,93,0);"/>
                </g>
                <g transform="matrix(1.22222,0,0,1,-1.22222,9)">
                    <rect x="1" y="144" width="9" height="1" style="fill:rgb(143,93,0);"/>
                </g>
                <g transform="matrix(1,0,0,2,3,-140)">
                    <rect x="1" y="147" width="1" height="1" style="fill:rgb(143,93,0);"/>
                </g>
                <g transform="matrix(1,0,0,1,-1.42109e-14,6)">
                    <rect x="0" y="149" width="3" height="1" style="fill:rgb(0,0,92);"/>
                    <rect x="0" y="149" width="3" height="1" style="fill:rgb(255,206,0);"/>
                </g>
                <g transform="matrix(1,0,0,1,-1.42109e-14,5)">
                    <rect x="2" y="150" width="3" height="1" style="fill:rgb(255,206,0);"/>
                    <rect x="2" y="150" width="3" height="1" style="fill:rgb(143,93,0);"/>
                </g>
                <g transform="matrix(1,0,0,3,-1,-290)">
                    <rect x="1" y="147" width="1" height="1" style="fill:rgb(143,93,0);"/>
                </g>
                <g transform="matrix(1,0,0,2,-1,-140)">
                    <rect x="3" y="147" width="1" height="1" style="fill:rgb(143,93,0);"/>
                </g>
                <g transform="matrix(1,0,0,2,-3,-140)">
                    <rect x="3" y="147" width="1" height="1" style="fill:rgb(143,93,0);"/>
                </g>
                <g transform="matrix(1,0,0,2,3,-140)">
                    <rect x="3" y="147" width="1" height="1" style="fill:rgb(143,93,0);"/>
                </g>
                <g transform="matrix(1.75,0,0,1.14286,-3.25,-12.1429)">
                    <rect x="7" y="141" width="4" height="7" style="fill:rgb(255,0,0);"/>
                    <path d="M11,148L7,148L7,141L11,141L11,148ZM7.571,141.875L7.571,147.125L10.429,147.125L10.429,141.875L7.571,141.875Z" style="fill:rgb(162,0,11);"/>
                </g>
                <g transform="matrix(1,0,0,1,-30,6)">
                    <rect x="42" y="145" width="2" height="2" style="fill:rgb(162,0,11);"/>
                    <rect x="42" y="145" width="2" height="2" style="fill:white;"/>
                </g>
                <g transform="matrix(1,0,0,1,-1.42109e-14,6)">
                    <rect x="1" y="146" width="1" height="4" style="fill:rgb(0,0,92);"/>
                    <rect x="1" y="146" width="1" height="4" style="fill:rgb(255,206,0);"/>
                </g>
                <g transform="matrix(1,0,0,0.75,-1.42109e-14,42.5)">
                    <rect x="3" y="146" width="1" height="4" style="fill:rgb(0,0,92);"/>
                    <rect x="3" y="146" width="1" height="4" style="fill:rgb(255,206,0);"/>
                </g>
                <g transform="matrix(1,0,0,1,-2,6)">
                    <rect x="2" y="150" width="3" height="1" style="fill:rgb(255,206,0);"/>
                    <rect x="2" y="150" width="3" height="1" style="fill:rgb(143,93,0);"/>
                </g>
                <g transform="matrix(1,0,0,1,4,6)">
                    <rect x="1" y="146" width="1" height="4" style="fill:rgb(0,0,92);"/>
                    <rect x="1" y="146" width="1" height="4" style="fill:rgb(255,206,0);"/>
                </g>
                <g transform="matrix(1,0,0,1,2,5)">
                    <rect x="2" y="150" width="3" height="1" style="fill:rgb(255,206,0);"/>
                    <rect x="2" y="150" width="3" height="1" style="fill:rgb(143,93,0);"/>
                </g>
                <g transform="matrix(1,0,0,1,-1.39333e-14,8)">
                    <rect x="1" y="144" width="9" height="1" style="fill:rgb(255,206,0);"/>
                </g>
            </g>
        </g>
    </g>
</svg>
