<?xml version="1.0" encoding="UTF-8" standalone="no"?>
<!DOCTYPE svg PUBLIC "-//W3C//DTD SVG 1.1//EN" "http://www.w3.org/Graphics/SVG/1.1/DTD/svg11.dtd">
<svg width="100%" height="100%" viewBox="0 0 300 300" version="1.1"
    xmlns="http://www.w3.org/2000/svg"
    xmlns:xlink="http://www.w3.org/1999/xlink" xml:space="preserve" style="fill-rule:evenodd;clip-rule:evenodd;stroke-linejoin:round;stroke-miterlimit:2;">
    <g>
        <path d="M26,163.476L27.968,163.476L31.76,178.524L36.128,163.476L38.048,163.476L42.392,178.524L46.184,163.476L48.152,163.476L43.616,181.14L41.552,181.14L37.088,166.14L32.6,181.14L30.536,181.14L26,163.476Z" style="fill:rgb(133,133,133);fill-rule:nonzero;"/>
        <path d="M49.784,163.476L51.752,163.476L55.544,178.524L59.912,163.476L61.832,163.476L66.176,178.524L69.968,163.476L71.936,163.476L67.4,181.14L65.336,181.14L60.872,166.14L56.384,181.14L54.32,181.14L49.784,163.476Z" style="fill:rgb(133,133,133);fill-rule:nonzero;"/>
        <path d="M73.568,163.476L75.536,163.476L79.328,178.524L83.696,163.476L85.616,163.476L89.96,178.524L93.752,163.476L95.72,163.476L91.184,181.14L89.12,181.14L84.656,166.14L80.168,181.14L78.104,181.14L73.568,163.476Z" style="fill:rgb(133,133,133);fill-rule:nonzero;"/>
        <path d="M97.448,181.164C97.336,181.164 97.244,181.128 97.172,181.056C97.1,180.984 97.064,180.892 97.064,180.78L97.064,178.86C97.064,178.604 97.192,178.476 97.448,178.476L98.504,178.476C98.76,178.476 98.888,178.604 98.888,178.86L98.888,180.78C98.888,181.036 98.76,181.164 98.504,181.164L97.448,181.164Z" style="fill:rgb(133,133,133);fill-rule:nonzero;"/>
        <path d="M102.224,163.476L109.208,163.476C111.272,163.476 112.756,164.212 113.66,165.684C114.564,167.156 115.016,169.364 115.016,172.308C115.016,175.124 114.524,177.3 113.54,178.836C112.556,180.372 111.112,181.14 109.208,181.14L102.224,181.14L102.224,163.476ZM109.064,179.436C110.424,179.436 111.44,178.808 112.112,177.552C112.784,176.296 113.12,174.548 113.12,172.308C113.12,170.564 112.98,169.172 112.7,168.132C112.42,167.092 111.984,166.344 111.392,165.888C110.8,165.432 110.024,165.204 109.064,165.204L104.144,165.204L104.144,179.436L109.064,179.436Z" style="fill:rgb(133,133,133);fill-rule:nonzero;"/>
        <path d="M123.056,163.476L125.504,163.476L131.552,181.14L129.584,181.14L127.808,176.1L120.704,176.1L118.976,181.14L117.008,181.14L123.056,163.476ZM127.328,174.372L124.28,165.156L121.184,174.372L127.328,174.372Z" style="fill:rgb(133,133,133);fill-rule:nonzero;"/>
        <path d="M137.024,165.204L131.552,165.204L131.552,163.476L144.368,163.476L144.368,165.204L138.92,165.204L138.92,181.14L137.024,181.14L137.024,165.204Z" style="fill:rgb(133,133,133);fill-rule:nonzero;"/>
        <path d="M149.96,181.236C148.952,181.236 148.1,181 147.404,180.528C146.708,180.056 146.36,179.148 146.36,177.804L146.36,167.028C146.36,165.78 146.696,164.876 147.368,164.316C148.04,163.756 148.864,163.476 149.84,163.476C152.4,163.524 154.392,163.58 155.816,163.644L157.232,163.692L157.232,165.228L150.32,165.228C148.96,165.228 148.28,165.932 148.28,167.34L148.28,171.516L156.176,171.636L156.176,173.1L148.28,173.22L148.28,177.372C148.28,178.188 148.472,178.74 148.856,179.028C149.24,179.316 149.76,179.46 150.416,179.46L157.232,179.46L157.232,180.996C154.192,181.156 151.768,181.236 149.96,181.236Z" style="fill:rgb(133,133,133);fill-rule:nonzero;"/>
        <path d="M160.784,163.476L162.344,163.476L171.56,177.852L171.56,163.476L173.456,163.476L173.456,181.14L171.896,181.14L162.68,166.764L162.68,181.14L160.784,181.14L160.784,163.476Z" style="fill:rgb(133,133,133);fill-rule:nonzero;"/>
        <path d="M181.856,181.284C181.104,181.284 180.172,181.24 179.06,181.152C177.948,181.064 177.096,180.964 176.504,180.852L176.504,179.388C177.752,179.516 179.512,179.58 181.784,179.58C183,179.58 183.944,179.388 184.616,179.004C185.288,178.62 185.624,177.924 185.624,176.916L185.624,175.716C185.624,174.052 184.744,173.22 182.984,173.22L181.088,173.22C179.568,173.22 178.412,172.888 177.62,172.224C176.828,171.56 176.432,170.468 176.432,168.948L176.432,167.94C176.432,166.324 176.864,165.152 177.728,164.424C178.592,163.696 179.872,163.332 181.568,163.332C182.288,163.332 183.156,163.384 184.172,163.488C185.188,163.592 186.016,163.708 186.656,163.836L186.656,165.276C184.496,165.132 182.864,165.06 181.76,165.06C180.576,165.06 179.696,165.272 179.12,165.696C178.544,166.12 178.256,166.892 178.256,168.012L178.256,168.828C178.256,169.756 178.5,170.416 178.988,170.808C179.476,171.2 180.2,171.396 181.16,171.396L183.2,171.396C184.592,171.396 185.648,171.768 186.368,172.512C187.088,173.256 187.448,174.252 187.448,175.5L187.448,176.868C187.448,178.516 186.948,179.664 185.948,180.312C184.948,180.96 183.584,181.284 181.856,181.284Z" style="fill:rgb(133,133,133);fill-rule:nonzero;"/>
        <path d="M194.312,181.236C193.304,181.236 192.452,181 191.756,180.528C191.06,180.056 190.712,179.148 190.712,177.804L190.712,167.028C190.712,165.78 191.048,164.876 191.72,164.316C192.392,163.756 193.216,163.476 194.192,163.476C196.752,163.524 198.744,163.58 200.168,163.644L201.584,163.692L201.584,165.228L194.672,165.228C193.312,165.228 192.632,165.932 192.632,167.34L192.632,171.516L200.528,171.636L200.528,173.1L192.632,173.22L192.632,177.372C192.632,178.188 192.824,178.74 193.208,179.028C193.592,179.316 194.112,179.46 194.768,179.46L201.584,179.46L201.584,180.996C198.544,181.156 196.12,181.236 194.312,181.236Z" style="fill:rgb(133,133,133);fill-rule:nonzero;"/>
        <path d="M205.136,163.476L206.696,163.476L215.912,177.852L215.912,163.476L217.808,163.476L217.808,181.14L216.248,181.14L207.032,166.764L207.032,181.14L205.136,181.14L205.136,163.476Z" style="fill:rgb(133,133,133);fill-rule:nonzero;"/>
        <path d="M221.216,181.164C221.104,181.164 221.012,181.128 220.94,181.056C220.868,180.984 220.832,180.892 220.832,180.78L220.832,178.86C220.832,178.604 220.96,178.476 221.216,178.476L222.272,178.476C222.528,178.476 222.656,178.604 222.656,178.86L222.656,180.78C222.656,181.036 222.528,181.164 222.272,181.164L221.216,181.164Z" style="fill:rgb(133,133,133);fill-rule:nonzero;"/>
        <path d="M231.296,181.284C229.776,181.284 228.576,181.048 227.696,180.576C226.816,180.104 226.16,179.22 225.728,177.924C225.296,176.628 225.08,174.74 225.08,172.26C225.08,169.908 225.304,168.088 225.752,166.8C226.2,165.512 226.88,164.612 227.792,164.1C228.704,163.588 229.92,163.332 231.44,163.332C232.176,163.332 233.02,163.392 233.972,163.512C234.924,163.632 235.768,163.788 236.504,163.98L236.504,165.396C235.944,165.316 235.224,165.236 234.344,165.156C233.464,165.076 232.592,165.036 231.728,165.036C230.528,165.036 229.592,165.232 228.92,165.624C228.248,166.016 227.756,166.728 227.444,167.76C227.132,168.792 226.976,170.3 226.976,172.284C226.976,174.332 227.124,175.872 227.42,176.904C227.716,177.936 228.192,178.64 228.848,179.016C229.504,179.392 230.448,179.58 231.68,179.58C233.712,179.58 235.32,179.476 236.504,179.268L236.504,180.708C235.768,180.884 234.94,181.024 234.02,181.128C233.1,181.232 232.192,181.284 231.296,181.284Z" style="fill:rgb(133,133,133);fill-rule:nonzero;"/>
        <path d="M245.6,181.284C243.936,181.284 242.628,181.064 241.676,180.624C240.724,180.184 240.004,179.328 239.516,178.056C239.028,176.784 238.784,174.892 238.784,172.38C238.784,169.884 239.036,167.984 239.54,166.68C240.044,165.376 240.776,164.492 241.736,164.028C242.696,163.564 243.984,163.332 245.6,163.332C247.264,163.332 248.576,163.56 249.536,164.016C250.496,164.472 251.216,165.352 251.696,166.656C252.176,167.96 252.416,169.868 252.416,172.38C252.416,174.892 252.172,176.784 251.684,178.056C251.196,179.328 250.476,180.184 249.524,180.624C248.572,181.064 247.264,181.284 245.6,181.284ZM245.6,179.58C246.88,179.58 247.86,179.404 248.54,179.052C249.22,178.7 249.72,178.012 250.04,176.988C250.36,175.964 250.52,174.428 250.52,172.38C250.52,170.252 250.36,168.668 250.04,167.628C249.72,166.588 249.22,165.896 248.54,165.552C247.86,165.208 246.88,165.036 245.6,165.036C244.384,165.036 243.432,165.208 242.744,165.552C242.056,165.896 241.54,166.596 241.196,167.652C240.852,168.708 240.68,170.284 240.68,172.38C240.68,174.444 240.832,175.984 241.136,177C241.44,178.016 241.932,178.7 242.612,179.052C243.292,179.404 244.288,179.58 245.6,179.58Z" style="fill:rgb(133,133,133);fill-rule:nonzero;"/>
        <path d="M270.176,181.14L268.496,166.476L264.248,181.14L262.496,181.14L258.176,166.596L256.568,181.14L254.72,181.14L256.736,163.476L258.68,163.476L263.384,178.74L267.992,163.476L269.96,163.476L272.024,181.14L270.176,181.14Z" style="fill:rgb(133,133,133);fill-rule:nonzero;"/>
        <path d="M32.216,122.034C30.696,122.034 29.496,121.798 28.616,121.326C27.736,120.854 27.08,119.97 26.648,118.674C26.216,117.378 26,115.49 26,113.01C26,110.658 26.224,108.838 26.672,107.55C27.12,106.262 27.8,105.362 28.712,104.85C29.624,104.338 30.84,104.082 32.36,104.082C33.096,104.082 33.94,104.142 34.892,104.262C35.844,104.382 36.688,104.538 37.424,104.73L37.424,106.146C36.864,106.066 36.144,105.986 35.264,105.906C34.384,105.826 33.512,105.786 32.648,105.786C31.448,105.786 30.512,105.982 29.84,106.374C29.168,106.766 28.676,107.478 28.364,108.51C28.052,109.542 27.896,111.05 27.896,113.034C27.896,115.082 28.044,116.622 28.34,117.654C28.636,118.686 29.112,119.39 29.768,119.766C30.424,120.142 31.368,120.33 32.6,120.33C34.632,120.33 36.24,120.226 37.424,120.018L37.424,121.458C36.688,121.634 35.86,121.774 34.94,121.878C34.02,121.982 33.112,122.034 32.216,122.034Z" style="fill:rgb(133,133,133);fill-rule:nonzero;"/>
        <path d="M40.352,109.074L41.792,109.074L42.248,111.306C42.872,110.554 43.544,109.97 44.264,109.554C44.984,109.138 45.776,108.93 46.64,108.93C47.072,108.93 47.472,108.97 47.84,109.05L47.84,110.994C47.12,110.914 46.656,110.874 46.448,110.874C45.6,110.874 44.868,111.026 44.252,111.33C43.636,111.634 42.968,112.122 42.248,112.794L42.248,121.89L40.352,121.89L40.352,109.074Z" style="fill:rgb(133,133,133);fill-rule:nonzero;"/>
        <path d="M55.136,122.034C53.76,122.034 52.692,121.834 51.932,121.434C51.172,121.034 50.624,120.362 50.288,119.418C49.952,118.474 49.784,117.154 49.784,115.458C49.784,113.746 49.956,112.418 50.3,111.474C50.644,110.53 51.2,109.866 51.968,109.482C52.736,109.098 53.8,108.906 55.16,108.906C56.328,108.906 57.264,109.034 57.968,109.29C58.672,109.546 59.192,109.982 59.528,110.598C59.864,111.214 60.032,112.066 60.032,113.154C60.032,114.242 59.716,115.03 59.084,115.518C58.452,116.006 57.552,116.25 56.384,116.25L51.68,116.25C51.696,117.354 51.808,118.206 52.016,118.806C52.224,119.406 52.608,119.846 53.168,120.126C53.728,120.406 54.536,120.546 55.592,120.546L59.72,120.546L59.72,121.698C58.856,121.81 58.088,121.894 57.416,121.95C56.744,122.006 55.984,122.034 55.136,122.034ZM56.216,115.002C56.952,115.002 57.488,114.866 57.824,114.594C58.16,114.322 58.328,113.85 58.328,113.178C58.328,112.106 58.092,111.366 57.62,110.958C57.148,110.55 56.328,110.346 55.16,110.346C54.232,110.346 53.52,110.482 53.024,110.754C52.528,111.026 52.176,111.49 51.968,112.146C51.76,112.802 51.656,113.754 51.656,115.002L56.216,115.002Z" style="fill:rgb(133,133,133);fill-rule:nonzero;"/>
        <path d="M65.72,122.034C64.76,122.034 63.98,121.746 63.38,121.17C62.78,120.594 62.48,119.81 62.48,118.818L62.48,117.906C62.48,116.866 62.82,116.042 63.5,115.434C64.18,114.826 65.176,114.522 66.488,114.522L70.832,114.522L70.832,112.938C70.832,112.074 70.596,111.434 70.124,111.018C69.652,110.602 68.784,110.394 67.52,110.394L63.536,110.394L63.536,109.266C65.04,109.01 66.6,108.882 68.216,108.882C69.768,108.882 70.908,109.198 71.636,109.83C72.364,110.462 72.728,111.466 72.728,112.842L72.728,121.89L71.264,121.89L70.904,120.426C70.792,120.522 70.444,120.706 69.86,120.978C69.276,121.25 68.608,121.494 67.856,121.71C67.104,121.926 66.392,122.034 65.72,122.034ZM66.56,120.618C66.992,120.618 67.52,120.538 68.144,120.378C68.768,120.218 69.332,120.05 69.836,119.874C70.34,119.698 70.672,119.578 70.832,119.514L70.832,115.482L66.92,115.65C66.04,115.682 65.396,115.898 64.988,116.298C64.58,116.698 64.376,117.242 64.376,117.93L64.376,118.506C64.376,119.242 64.588,119.778 65.012,120.114C65.436,120.45 65.952,120.618 66.56,120.618Z" style="fill:rgb(133,133,133);fill-rule:nonzero;"/>
        <path d="M80.552,121.89C79.288,121.89 78.36,121.566 77.768,120.918C77.176,120.27 76.896,119.21 76.928,117.738L77,110.634L74.96,110.634L74.96,109.41L77.024,109.074L77.336,105.498L78.8,105.498L78.8,109.074L82.496,109.074L82.496,110.634L78.8,110.634L78.8,117.738C78.8,118.714 78.984,119.382 79.352,119.742C79.72,120.102 80.184,120.306 80.744,120.354L82.304,120.498L82.304,121.89L80.552,121.89Z" style="fill:rgb(133,133,133);fill-rule:nonzero;"/>
        <path d="M90.008,122.034C88.632,122.034 87.564,121.834 86.804,121.434C86.044,121.034 85.496,120.362 85.16,119.418C84.824,118.474 84.656,117.154 84.656,115.458C84.656,113.746 84.828,112.418 85.172,111.474C85.516,110.53 86.072,109.866 86.84,109.482C87.608,109.098 88.672,108.906 90.032,108.906C91.2,108.906 92.136,109.034 92.84,109.29C93.544,109.546 94.064,109.982 94.4,110.598C94.736,111.214 94.904,112.066 94.904,113.154C94.904,114.242 94.588,115.03 93.956,115.518C93.324,116.006 92.424,116.25 91.256,116.25L86.552,116.25C86.568,117.354 86.68,118.206 86.888,118.806C87.096,119.406 87.48,119.846 88.04,120.126C88.6,120.406 89.408,120.546 90.464,120.546L94.592,120.546L94.592,121.698C93.728,121.81 92.96,121.894 92.288,121.95C91.616,122.006 90.856,122.034 90.008,122.034ZM91.088,115.002C91.824,115.002 92.36,114.866 92.696,114.594C93.032,114.322 93.2,113.85 93.2,113.178C93.2,112.106 92.964,111.366 92.492,110.958C92.02,110.55 91.2,110.346 90.032,110.346C89.104,110.346 88.392,110.482 87.896,110.754C87.4,111.026 87.048,111.49 86.84,112.146C86.632,112.802 86.528,113.754 86.528,115.002L91.088,115.002Z" style="fill:rgb(133,133,133);fill-rule:nonzero;"/>
        <path d="M102.248,122.034C100.664,122.034 99.5,121.514 98.756,120.474C98.012,119.434 97.64,117.802 97.64,115.578C97.64,113.978 97.8,112.69 98.12,111.714C98.44,110.738 98.952,110.026 99.656,109.578C100.36,109.13 101.304,108.906 102.488,108.906C103.704,108.906 105.016,109.162 106.424,109.674L106.424,103.578L108.32,103.578L108.32,121.89L106.784,121.89L106.424,120.594C106.04,120.93 105.424,121.254 104.576,121.566C103.728,121.878 102.952,122.034 102.248,122.034ZM102.8,120.474C103.472,120.474 104.092,120.374 104.66,120.174C105.228,119.974 105.816,119.714 106.424,119.394L106.424,111.018C105.672,110.794 105.06,110.634 104.588,110.538C104.116,110.442 103.584,110.394 102.992,110.394C102.144,110.394 101.472,110.55 100.976,110.862C100.48,111.174 100.116,111.698 99.884,112.434C99.652,113.17 99.536,114.194 99.536,115.506C99.536,117.298 99.784,118.574 100.28,119.334C100.776,120.094 101.616,120.474 102.8,120.474Z" style="fill:rgb(133,133,133);fill-rule:nonzero;"/>
        <path d="M118.664,106.794C118.552,106.794 118.46,106.758 118.388,106.686C118.316,106.614 118.28,106.522 118.28,106.41L118.28,104.538C118.28,104.282 118.408,104.154 118.664,104.154L120.008,104.154C120.248,104.154 120.368,104.282 120.368,104.538L120.368,106.41C120.368,106.666 120.248,106.794 120.008,106.794L118.664,106.794ZM118.376,109.074L120.272,109.074L120.272,121.89L118.376,121.89L118.376,109.074Z" style="fill:rgb(133,133,133);fill-rule:nonzero;"/>
        <path d="M123.92,109.074L125.408,109.074L125.816,110.49C126.488,110.026 127.232,109.638 128.048,109.326C128.864,109.014 129.68,108.858 130.496,108.858C131.824,108.858 132.816,109.266 133.472,110.082C134.128,110.898 134.456,111.93 134.456,113.178L134.456,121.89L132.56,121.89L132.56,113.394C132.56,112.562 132.324,111.886 131.852,111.366C131.38,110.846 130.728,110.586 129.896,110.586C129.128,110.586 128.444,110.686 127.844,110.886C127.244,111.086 126.568,111.402 125.816,111.834L125.816,121.89L123.92,121.89L123.92,109.074Z" style="fill:rgb(133,133,133);fill-rule:nonzero;"/>
        <g transform="matrix(2.43128,0,0,2.43128,-93.8453,-388.018)">
            <path d="M48.975,213.112L52.924,213.112C53.714,213.112 54.364,213.328 54.874,213.76C55.384,214.192 55.639,215.05 55.639,216.333C55.639,217.624 55.388,218.496 54.886,218.949C54.384,219.401 53.763,219.627 53.023,219.627C52.669,219.627 52.274,219.593 51.838,219.523C51.402,219.453 51.159,219.414 51.11,219.405L51.11,222.268L48.975,222.268L48.975,213.112ZM52.69,217.715C52.969,217.715 53.175,217.606 53.306,217.388C53.438,217.17 53.504,216.822 53.504,216.345C53.504,215.465 53.237,215.025 52.702,215.025L51.11,215.025L51.11,217.715L52.69,217.715Z" style="fill:rgb(133,133,133);fill-rule:nonzero;"/>
            <path d="M59.501,222.33C58.728,222.33 58.123,222.231 57.687,222.034C57.251,221.836 56.932,221.497 56.731,221.016C56.529,220.534 56.428,219.85 56.428,218.961C56.428,218.048 56.521,217.347 56.706,216.857C56.891,216.368 57.195,216.022 57.619,215.821C58.043,215.619 58.641,215.519 59.414,215.519C60.114,215.519 60.661,215.586 61.055,215.722C61.45,215.858 61.736,216.092 61.913,216.425C62.09,216.759 62.178,217.234 62.178,217.851C62.178,218.517 61.989,218.99 61.611,219.27C61.232,219.549 60.681,219.689 59.957,219.689L58.538,219.689C58.555,219.969 58.606,220.183 58.693,220.331C58.779,220.479 58.929,220.586 59.143,220.652C59.357,220.717 59.669,220.75 60.081,220.75L61.944,220.75L61.944,221.997C61.557,222.104 61.177,222.186 60.803,222.243C60.428,222.301 59.994,222.33 59.501,222.33ZM59.723,218.431C59.929,218.431 60.077,218.387 60.167,218.301C60.258,218.215 60.303,218.069 60.303,217.863C60.303,217.567 60.235,217.357 60.099,217.234C59.963,217.11 59.735,217.049 59.414,217.049C59.077,217.049 58.843,217.145 58.711,217.339C58.579,217.532 58.514,217.896 58.514,218.431L59.723,218.431Z" style="fill:rgb(133,133,133);fill-rule:nonzero;"/>
            <path d="M63.227,215.63L64.881,215.63L65.362,216.592C65.609,216.263 65.872,216.004 66.152,215.815C66.431,215.625 66.748,215.531 67.102,215.531C67.307,215.531 67.48,215.551 67.62,215.593L67.62,217.777C67.258,217.744 66.991,217.727 66.818,217.727C66.497,217.727 66.217,217.777 65.979,217.875C65.74,217.974 65.535,218.126 65.362,218.332L65.362,222.268L63.227,222.268L63.227,215.63Z" style="fill:rgb(133,133,133);fill-rule:nonzero;"/>
            <path d="M70.952,222.342C70.458,222.342 69.977,222.313 69.508,222.256C69.039,222.198 68.665,222.112 68.385,221.997L68.385,220.75L71.396,220.75C71.601,220.75 71.745,220.724 71.828,220.67C71.91,220.617 71.951,220.516 71.951,220.368L71.951,220.183C71.951,220.059 71.908,219.965 71.821,219.899C71.735,219.833 71.581,219.8 71.359,219.8L70.273,219.8C69.656,219.8 69.164,219.654 68.798,219.362C68.432,219.07 68.249,218.599 68.249,217.949L68.249,217.554C68.249,217.102 68.334,216.732 68.502,216.444C68.671,216.156 68.959,215.938 69.366,215.79C69.773,215.642 70.33,215.568 71.038,215.568C71.457,215.568 71.904,215.603 72.377,215.673C72.85,215.743 73.205,215.823 73.444,215.913L73.444,217.16L70.594,217.16C70.404,217.16 70.269,217.188 70.186,217.246C70.104,217.304 70.063,217.406 70.063,217.554L70.063,217.727C70.063,217.875 70.11,217.976 70.205,218.03C70.3,218.083 70.466,218.11 70.705,218.11L71.803,218.11C72.486,218.11 72.981,218.264 73.29,218.572C73.598,218.881 73.753,219.323 73.753,219.899L73.753,220.528C73.753,221.186 73.524,221.653 73.068,221.929C72.611,222.204 71.906,222.342 70.952,222.342Z" style="fill:rgb(133,133,133);fill-rule:nonzero;"/>
            <path d="M77.639,222.33C76.866,222.33 76.261,222.231 75.825,222.034C75.39,221.836 75.071,221.497 74.869,221.016C74.668,220.534 74.567,219.85 74.567,218.961C74.567,218.048 74.659,217.347 74.845,216.857C75.03,216.368 75.334,216.022 75.758,215.821C76.181,215.619 76.78,215.519 77.553,215.519C78.252,215.519 78.799,215.586 79.194,215.722C79.589,215.858 79.875,216.092 80.052,216.425C80.229,216.759 80.317,217.234 80.317,217.851C80.317,218.517 80.128,218.99 79.749,219.27C79.371,219.549 78.82,219.689 78.096,219.689L76.677,219.689C76.693,219.969 76.745,220.183 76.831,220.331C76.918,220.479 77.068,220.586 77.282,220.652C77.495,220.717 77.808,220.75 78.219,220.75L80.083,220.75L80.083,221.997C79.696,222.104 79.315,222.186 78.941,222.243C78.567,222.301 78.133,222.33 77.639,222.33ZM77.861,218.431C78.067,218.431 78.215,218.387 78.306,218.301C78.396,218.215 78.441,218.069 78.441,217.863C78.441,217.567 78.374,217.357 78.238,217.234C78.102,217.11 77.874,217.049 77.553,217.049C77.216,217.049 76.981,217.145 76.85,217.339C76.718,217.532 76.652,217.896 76.652,218.431L77.861,218.431Z" style="fill:rgb(133,133,133);fill-rule:nonzero;"/>
            <path d="M81.613,214.729C81.53,214.729 81.465,214.704 81.415,214.655C81.366,214.605 81.341,214.54 81.341,214.457L81.341,213.162C81.341,212.973 81.432,212.878 81.613,212.878L83.266,212.878C83.439,212.878 83.525,212.973 83.525,213.162L83.525,214.457C83.525,214.638 83.439,214.729 83.266,214.729L81.613,214.729ZM81.366,215.63L83.5,215.63L83.5,222.268L81.366,222.268L81.366,215.63Z" style="fill:rgb(133,133,133);fill-rule:nonzero;"/>
            <path d="M86.918,222.342C86.129,222.342 85.536,222.085 85.142,221.571C84.747,221.057 84.549,220.207 84.549,219.023C84.549,218.176 84.625,217.499 84.778,216.993C84.93,216.487 85.185,216.115 85.543,215.876C85.9,215.638 86.4,215.519 87.042,215.519C87.544,215.519 88.07,215.613 88.621,215.802L88.621,212.853L90.756,212.853L90.756,222.268L88.954,222.268L88.621,221.651C88.383,221.857 88.115,222.023 87.819,222.151C87.523,222.278 87.223,222.342 86.918,222.342ZM87.683,220.639C88.012,220.639 88.325,220.536 88.621,220.331L88.621,217.345C88.309,217.188 88.021,217.11 87.757,217.11C87.478,217.11 87.264,217.158 87.116,217.252C86.968,217.347 86.859,217.522 86.789,217.777C86.719,218.032 86.684,218.41 86.684,218.912C86.684,219.397 86.715,219.761 86.777,220.004C86.838,220.246 86.939,220.413 87.079,220.504C87.219,220.594 87.42,220.639 87.683,220.639Z" style="fill:rgb(133,133,133);fill-rule:nonzero;"/>
            <path d="M103.058,222.268L102.404,216.851L101.022,222.268L99.023,222.268L97.641,216.925L97.024,222.268L94.964,222.268L96.037,213.112L98.061,213.112L100.047,219.813L102.022,213.112L104.021,213.112L105.106,222.268L103.058,222.268Z" style="fill:rgb(133,133,133);fill-rule:nonzero;"/>
            <path d="M109.006,222.33C108.232,222.33 107.622,222.221 107.173,222.003C106.725,221.785 106.4,221.431 106.198,220.942C105.997,220.452 105.896,219.784 105.896,218.936C105.896,218.04 105.997,217.347 106.198,216.857C106.4,216.368 106.723,216.022 107.167,215.821C107.611,215.619 108.224,215.519 109.006,215.519C109.787,215.519 110.402,215.621 110.85,215.827C111.299,216.033 111.624,216.382 111.825,216.876C112.027,217.369 112.127,218.056 112.127,218.936C112.127,219.808 112.031,220.487 111.837,220.972C111.644,221.458 111.323,221.805 110.875,222.015C110.427,222.225 109.803,222.33 109.006,222.33ZM109.006,220.639C109.277,220.639 109.479,220.602 109.61,220.528C109.742,220.454 109.838,220.296 109.9,220.053C109.962,219.81 109.993,219.434 109.993,218.924C109.993,218.414 109.962,218.04 109.9,217.801C109.838,217.563 109.742,217.406 109.61,217.332C109.479,217.258 109.277,217.221 109.006,217.221C108.734,217.221 108.535,217.258 108.407,217.332C108.28,217.406 108.185,217.561 108.123,217.795C108.062,218.03 108.031,218.406 108.031,218.924C108.031,219.442 108.062,219.821 108.123,220.059C108.185,220.298 108.282,220.454 108.413,220.528C108.545,220.602 108.742,220.639 109.006,220.639Z" style="fill:rgb(133,133,133);fill-rule:nonzero;"/>
            <path d="M115.36,222.342C114.571,222.342 113.978,222.085 113.583,221.571C113.189,221.057 112.991,220.207 112.991,219.023C112.991,218.176 113.067,217.499 113.219,216.993C113.372,216.487 113.627,216.115 113.984,215.876C114.342,215.638 114.842,215.519 115.484,215.519C115.985,215.519 116.512,215.613 117.063,215.802L117.063,212.853L119.198,212.853L119.198,222.268L117.396,222.268L117.063,221.651C116.824,221.857 116.557,222.023 116.261,222.151C115.965,222.278 115.665,222.342 115.36,222.342ZM116.125,220.639C116.454,220.639 116.767,220.536 117.063,220.331L117.063,217.345C116.75,217.188 116.463,217.11 116.199,217.11C115.92,217.11 115.706,217.158 115.558,217.252C115.41,217.347 115.301,217.522 115.231,217.777C115.161,218.032 115.126,218.41 115.126,218.912C115.126,219.397 115.157,219.761 115.218,220.004C115.28,220.246 115.381,220.413 115.521,220.504C115.66,220.594 115.862,220.639 116.125,220.639Z" style="fill:rgb(133,133,133);fill-rule:nonzero;"/>
            <path d="M123.294,222.33C122.521,222.33 121.916,222.231 121.48,222.034C121.044,221.836 120.726,221.497 120.524,221.016C120.323,220.534 120.222,219.85 120.222,218.961C120.222,218.048 120.314,217.347 120.5,216.857C120.685,216.368 120.989,216.022 121.413,215.821C121.836,215.619 122.435,215.519 123.208,215.519C123.907,215.519 124.454,215.586 124.849,215.722C125.244,215.858 125.53,216.092 125.707,216.425C125.883,216.759 125.972,217.234 125.972,217.851C125.972,218.517 125.783,218.99 125.404,219.27C125.026,219.549 124.475,219.689 123.751,219.689L122.332,219.689C122.348,219.969 122.4,220.183 122.486,220.331C122.572,220.479 122.723,220.586 122.936,220.652C123.15,220.717 123.463,220.75 123.874,220.75L125.737,220.75L125.737,221.997C125.351,222.104 124.97,222.186 124.596,222.243C124.222,222.301 123.788,222.33 123.294,222.33ZM123.516,218.431C123.722,218.431 123.87,218.387 123.961,218.301C124.051,218.215 124.096,218.069 124.096,217.863C124.096,217.567 124.029,217.357 123.893,217.234C123.757,217.11 123.529,217.049 123.208,217.049C122.871,217.049 122.636,217.145 122.505,217.339C122.373,217.532 122.307,217.896 122.307,218.431L123.516,218.431Z" style="fill:rgb(133,133,133);fill-rule:nonzero;"/>
            <path d="M129.217,222.305C128.477,222.305 127.926,222.124 127.564,221.762C127.202,221.4 127.021,220.853 127.021,220.121L127.021,212.853L129.155,212.853L129.155,219.788C129.155,220.084 129.203,220.3 129.297,220.436C129.392,220.571 129.546,220.656 129.76,220.689L130.204,220.75L130.204,222.305L129.217,222.305Z" style="fill:rgb(133,133,133);fill-rule:nonzero;"/>
            <path d="M133.857,222.33C133.083,222.33 132.479,222.231 132.043,222.034C131.607,221.836 131.288,221.497 131.087,221.016C130.885,220.534 130.784,219.85 130.784,218.961C130.784,218.048 130.877,217.347 131.062,216.857C131.247,216.368 131.551,216.022 131.975,215.821C132.399,215.619 132.997,215.519 133.77,215.519C134.47,215.519 135.017,215.586 135.411,215.722C135.806,215.858 136.092,216.092 136.269,216.425C136.446,216.759 136.534,217.234 136.534,217.851C136.534,218.517 136.345,218.99 135.967,219.27C135.588,219.549 135.037,219.689 134.313,219.689L132.894,219.689C132.911,219.969 132.962,220.183 133.048,220.331C133.135,220.479 133.285,220.586 133.499,220.652C133.713,220.717 134.025,220.75 134.437,220.75L136.3,220.75L136.3,221.997C135.913,222.104 135.533,222.186 135.158,222.243C134.784,222.301 134.35,222.33 133.857,222.33ZM134.079,218.431C134.284,218.431 134.432,218.387 134.523,218.301C134.613,218.215 134.659,218.069 134.659,217.863C134.659,217.567 134.591,217.357 134.455,217.234C134.319,217.11 134.091,217.049 133.77,217.049C133.433,217.049 133.199,217.145 133.067,217.339C132.935,217.532 132.87,217.896 132.87,218.431L134.079,218.431Z" style="fill:rgb(133,133,133);fill-rule:nonzero;"/>
            <path d="M137.583,215.63L139.237,215.63L139.718,216.592C139.965,216.263 140.228,216.004 140.507,215.815C140.787,215.625 141.104,215.531 141.458,215.531C141.663,215.531 141.836,215.551 141.976,215.593L141.976,217.777C141.614,217.744 141.347,217.727 141.174,217.727C140.853,217.727 140.573,217.777 140.335,217.875C140.096,217.974 139.891,218.126 139.718,218.332L139.718,222.268L137.583,222.268L137.583,215.63Z" style="fill:rgb(133,133,133);fill-rule:nonzero;"/>
        </g>
    </g>
</svg>
