<?xml version="1.0" encoding="UTF-8" standalone="no"?>
<!DOCTYPE svg PUBLIC "-//W3C//DTD SVG 1.1//EN" "http://www.w3.org/Graphics/SVG/1.1/DTD/svg11.dtd">
<svg width="100%" height="100%" viewBox="0 0 300 300" version="1.1"
    xmlns="http://www.w3.org/2000/svg"
    xmlns:xlink="http://www.w3.org/1999/xlink" xml:space="preserve" style="fill-rule:evenodd;clip-rule:evenodd;stroke-linejoin:round;stroke-miterlimit:2;">
    <g>
        <path d="M26,163.476L27.968,163.476L31.76,178.524L36.128,163.476L38.048,163.476L42.392,178.524L46.184,163.476L48.152,163.476L43.616,181.14L41.552,181.14L37.088,166.14L32.6,181.14L30.536,181.14L26,163.476Z" style="fill:rgb(133,133,133);fill-rule:nonzero;"/>
        <path d="M49.784,163.476L51.752,163.476L55.544,178.524L59.912,163.476L61.832,163.476L66.176,178.524L69.968,163.476L71.936,163.476L67.4,181.14L65.336,181.14L60.872,166.14L56.384,181.14L54.32,181.14L49.784,163.476Z" style="fill:rgb(133,133,133);fill-rule:nonzero;"/>
        <path d="M73.568,163.476L75.536,163.476L79.328,178.524L83.696,163.476L85.616,163.476L89.96,178.524L93.752,163.476L95.72,163.476L91.184,181.14L89.12,181.14L84.656,166.14L80.168,181.14L78.104,181.14L73.568,163.476Z" style="fill:rgb(133,133,133);fill-rule:nonzero;"/>
        <path d="M97.448,181.164C97.336,181.164 97.244,181.128 97.172,181.056C97.1,180.984 97.064,180.892 97.064,180.78L97.064,178.86C97.064,178.604 97.192,178.476 97.448,178.476L98.504,178.476C98.76,178.476 98.888,178.604 98.888,178.86L98.888,180.78C98.888,181.036 98.76,181.164 98.504,181.164L97.448,181.164Z" style="fill:rgb(133,133,133);fill-rule:nonzero;"/>
        <path d="M102.224,163.476L109.208,163.476C111.272,163.476 112.756,164.212 113.66,165.684C114.564,167.156 115.016,169.364 115.016,172.308C115.016,175.124 114.524,177.3 113.54,178.836C112.556,180.372 111.112,181.14 109.208,181.14L102.224,181.14L102.224,163.476ZM109.064,179.436C110.424,179.436 111.44,178.808 112.112,177.552C112.784,176.296 113.12,174.548 113.12,172.308C113.12,170.564 112.98,169.172 112.7,168.132C112.42,167.092 111.984,166.344 111.392,165.888C110.8,165.432 110.024,165.204 109.064,165.204L104.144,165.204L104.144,179.436L109.064,179.436Z" style="fill:rgb(133,133,133);fill-rule:nonzero;"/>
        <path d="M123.056,163.476L125.504,163.476L131.552,181.14L129.584,181.14L127.808,176.1L120.704,176.1L118.976,181.14L117.008,181.14L123.056,163.476ZM127.328,174.372L124.28,165.156L121.184,174.372L127.328,174.372Z" style="fill:rgb(133,133,133);fill-rule:nonzero;"/>
        <path d="M137.024,165.204L131.552,165.204L131.552,163.476L144.368,163.476L144.368,165.204L138.92,165.204L138.92,181.14L137.024,181.14L137.024,165.204Z" style="fill:rgb(133,133,133);fill-rule:nonzero;"/>
        <path d="M149.96,181.236C148.952,181.236 148.1,181 147.404,180.528C146.708,180.056 146.36,179.148 146.36,177.804L146.36,167.028C146.36,165.78 146.696,164.876 147.368,164.316C148.04,163.756 148.864,163.476 149.84,163.476C152.4,163.524 154.392,163.58 155.816,163.644L157.232,163.692L157.232,165.228L150.32,165.228C148.96,165.228 148.28,165.932 148.28,167.34L148.28,171.516L156.176,171.636L156.176,173.1L148.28,173.22L148.28,177.372C148.28,178.188 148.472,178.74 148.856,179.028C149.24,179.316 149.76,179.46 150.416,179.46L157.232,179.46L157.232,180.996C154.192,181.156 151.768,181.236 149.96,181.236Z" style="fill:rgb(133,133,133);fill-rule:nonzero;"/>
        <path d="M160.784,163.476L162.344,163.476L171.56,177.852L171.56,163.476L173.456,163.476L173.456,181.14L171.896,181.14L162.68,166.764L162.68,181.14L160.784,181.14L160.784,163.476Z" style="fill:rgb(133,133,133);fill-rule:nonzero;"/>
        <path d="M181.856,181.284C181.104,181.284 180.172,181.24 179.06,181.152C177.948,181.064 177.096,180.964 176.504,180.852L176.504,179.388C177.752,179.516 179.512,179.58 181.784,179.58C183,179.58 183.944,179.388 184.616,179.004C185.288,178.62 185.624,177.924 185.624,176.916L185.624,175.716C185.624,174.052 184.744,173.22 182.984,173.22L181.088,173.22C179.568,173.22 178.412,172.888 177.62,172.224C176.828,171.56 176.432,170.468 176.432,168.948L176.432,167.94C176.432,166.324 176.864,165.152 177.728,164.424C178.592,163.696 179.872,163.332 181.568,163.332C182.288,163.332 183.156,163.384 184.172,163.488C185.188,163.592 186.016,163.708 186.656,163.836L186.656,165.276C184.496,165.132 182.864,165.06 181.76,165.06C180.576,165.06 179.696,165.272 179.12,165.696C178.544,166.12 178.256,166.892 178.256,168.012L178.256,168.828C178.256,169.756 178.5,170.416 178.988,170.808C179.476,171.2 180.2,171.396 181.16,171.396L183.2,171.396C184.592,171.396 185.648,171.768 186.368,172.512C187.088,173.256 187.448,174.252 187.448,175.5L187.448,176.868C187.448,178.516 186.948,179.664 185.948,180.312C184.948,180.96 183.584,181.284 181.856,181.284Z" style="fill:rgb(133,133,133);fill-rule:nonzero;"/>
        <path d="M194.312,181.236C193.304,181.236 192.452,181 191.756,180.528C191.06,180.056 190.712,179.148 190.712,177.804L190.712,167.028C190.712,165.78 191.048,164.876 191.72,164.316C192.392,163.756 193.216,163.476 194.192,163.476C196.752,163.524 198.744,163.58 200.168,163.644L201.584,163.692L201.584,165.228L194.672,165.228C193.312,165.228 192.632,165.932 192.632,167.34L192.632,171.516L200.528,171.636L200.528,173.1L192.632,173.22L192.632,177.372C192.632,178.188 192.824,178.74 193.208,179.028C193.592,179.316 194.112,179.46 194.768,179.46L201.584,179.46L201.584,180.996C198.544,181.156 196.12,181.236 194.312,181.236Z" style="fill:rgb(133,133,133);fill-rule:nonzero;"/>
        <path d="M205.136,163.476L206.696,163.476L215.912,177.852L215.912,163.476L217.808,163.476L217.808,181.14L216.248,181.14L207.032,166.764L207.032,181.14L205.136,181.14L205.136,163.476Z" style="fill:rgb(133,133,133);fill-rule:nonzero;"/>
        <path d="M221.216,181.164C221.104,181.164 221.012,181.128 220.94,181.056C220.868,180.984 220.832,180.892 220.832,180.78L220.832,178.86C220.832,178.604 220.96,178.476 221.216,178.476L222.272,178.476C222.528,178.476 222.656,178.604 222.656,178.86L222.656,180.78C222.656,181.036 222.528,181.164 222.272,181.164L221.216,181.164Z" style="fill:rgb(133,133,133);fill-rule:nonzero;"/>
        <path d="M231.296,181.284C229.776,181.284 228.576,181.048 227.696,180.576C226.816,180.104 226.16,179.22 225.728,177.924C225.296,176.628 225.08,174.74 225.08,172.26C225.08,169.908 225.304,168.088 225.752,166.8C226.2,165.512 226.88,164.612 227.792,164.1C228.704,163.588 229.92,163.332 231.44,163.332C232.176,163.332 233.02,163.392 233.972,163.512C234.924,163.632 235.768,163.788 236.504,163.98L236.504,165.396C235.944,165.316 235.224,165.236 234.344,165.156C233.464,165.076 232.592,165.036 231.728,165.036C230.528,165.036 229.592,165.232 228.92,165.624C228.248,166.016 227.756,166.728 227.444,167.76C227.132,168.792 226.976,170.3 226.976,172.284C226.976,174.332 227.124,175.872 227.42,176.904C227.716,177.936 228.192,178.64 228.848,179.016C229.504,179.392 230.448,179.58 231.68,179.58C233.712,179.58 235.32,179.476 236.504,179.268L236.504,180.708C235.768,180.884 234.94,181.024 234.02,181.128C233.1,181.232 232.192,181.284 231.296,181.284Z" style="fill:rgb(133,133,133);fill-rule:nonzero;"/>
        <path d="M245.6,181.284C243.936,181.284 242.628,181.064 241.676,180.624C240.724,180.184 240.004,179.328 239.516,178.056C239.028,176.784 238.784,174.892 238.784,172.38C238.784,169.884 239.036,167.984 239.54,166.68C240.044,165.376 240.776,164.492 241.736,164.028C242.696,163.564 243.984,163.332 245.6,163.332C247.264,163.332 248.576,163.56 249.536,164.016C250.496,164.472 251.216,165.352 251.696,166.656C252.176,167.96 252.416,169.868 252.416,172.38C252.416,174.892 252.172,176.784 251.684,178.056C251.196,179.328 250.476,180.184 249.524,180.624C248.572,181.064 247.264,181.284 245.6,181.284ZM245.6,179.58C246.88,179.58 247.86,179.404 248.54,179.052C249.22,178.7 249.72,178.012 250.04,176.988C250.36,175.964 250.52,174.428 250.52,172.38C250.52,170.252 250.36,168.668 250.04,167.628C249.72,166.588 249.22,165.896 248.54,165.552C247.86,165.208 246.88,165.036 245.6,165.036C244.384,165.036 243.432,165.208 242.744,165.552C242.056,165.896 241.54,166.596 241.196,167.652C240.852,168.708 240.68,170.284 240.68,172.38C240.68,174.444 240.832,175.984 241.136,177C241.44,178.016 241.932,178.7 242.612,179.052C243.292,179.404 244.288,179.58 245.6,179.58Z" style="fill:rgb(133,133,133);fill-rule:nonzero;"/>
        <path d="M270.176,181.14L268.496,166.476L264.248,181.14L262.496,181.14L258.176,166.596L256.568,181.14L254.72,181.14L256.736,163.476L258.68,163.476L263.384,178.74L267.992,163.476L269.96,163.476L272.024,181.14L270.176,181.14Z" style="fill:rgb(133,133,133);fill-rule:nonzero;"/>
        <path d="M32.216,122.034C30.696,122.034 29.496,121.798 28.616,121.326C27.736,120.854 27.08,119.97 26.648,118.674C26.216,117.378 26,115.49 26,113.01C26,110.658 26.224,108.838 26.672,107.55C27.12,106.262 27.8,105.362 28.712,104.85C29.624,104.338 30.84,104.082 32.36,104.082C33.096,104.082 33.94,104.142 34.892,104.262C35.844,104.382 36.688,104.538 37.424,104.73L37.424,106.146C36.864,106.066 36.144,105.986 35.264,105.906C34.384,105.826 33.512,105.786 32.648,105.786C31.448,105.786 30.512,105.982 29.84,106.374C29.168,106.766 28.676,107.478 28.364,108.51C28.052,109.542 27.896,111.05 27.896,113.034C27.896,115.082 28.044,116.622 28.34,117.654C28.636,118.686 29.112,119.39 29.768,119.766C30.424,120.142 31.368,120.33 32.6,120.33C34.632,120.33 36.24,120.226 37.424,120.018L37.424,121.458C36.688,121.634 35.86,121.774 34.94,121.878C34.02,121.982 33.112,122.034 32.216,122.034Z" style="fill:rgb(133,133,133);fill-rule:nonzero;"/>
        <path d="M40.352,109.074L41.792,109.074L42.248,111.306C42.872,110.554 43.544,109.97 44.264,109.554C44.984,109.138 45.776,108.93 46.64,108.93C47.072,108.93 47.472,108.97 47.84,109.05L47.84,110.994C47.12,110.914 46.656,110.874 46.448,110.874C45.6,110.874 44.868,111.026 44.252,111.33C43.636,111.634 42.968,112.122 42.248,112.794L42.248,121.89L40.352,121.89L40.352,109.074Z" style="fill:rgb(133,133,133);fill-rule:nonzero;"/>
        <path d="M55.136,122.034C53.76,122.034 52.692,121.834 51.932,121.434C51.172,121.034 50.624,120.362 50.288,119.418C49.952,118.474 49.784,117.154 49.784,115.458C49.784,113.746 49.956,112.418 50.3,111.474C50.644,110.53 51.2,109.866 51.968,109.482C52.736,109.098 53.8,108.906 55.16,108.906C56.328,108.906 57.264,109.034 57.968,109.29C58.672,109.546 59.192,109.982 59.528,110.598C59.864,111.214 60.032,112.066 60.032,113.154C60.032,114.242 59.716,115.03 59.084,115.518C58.452,116.006 57.552,116.25 56.384,116.25L51.68,116.25C51.696,117.354 51.808,118.206 52.016,118.806C52.224,119.406 52.608,119.846 53.168,120.126C53.728,120.406 54.536,120.546 55.592,120.546L59.72,120.546L59.72,121.698C58.856,121.81 58.088,121.894 57.416,121.95C56.744,122.006 55.984,122.034 55.136,122.034ZM56.216,115.002C56.952,115.002 57.488,114.866 57.824,114.594C58.16,114.322 58.328,113.85 58.328,113.178C58.328,112.106 58.092,111.366 57.62,110.958C57.148,110.55 56.328,110.346 55.16,110.346C54.232,110.346 53.52,110.482 53.024,110.754C52.528,111.026 52.176,111.49 51.968,112.146C51.76,112.802 51.656,113.754 51.656,115.002L56.216,115.002Z" style="fill:rgb(133,133,133);fill-rule:nonzero;"/>
        <path d="M65.72,122.034C64.76,122.034 63.98,121.746 63.38,121.17C62.78,120.594 62.48,119.81 62.48,118.818L62.48,117.906C62.48,116.866 62.82,116.042 63.5,115.434C64.18,114.826 65.176,114.522 66.488,114.522L70.832,114.522L70.832,112.938C70.832,112.074 70.596,111.434 70.124,111.018C69.652,110.602 68.784,110.394 67.52,110.394L63.536,110.394L63.536,109.266C65.04,109.01 66.6,108.882 68.216,108.882C69.768,108.882 70.908,109.198 71.636,109.83C72.364,110.462 72.728,111.466 72.728,112.842L72.728,121.89L71.264,121.89L70.904,120.426C70.792,120.522 70.444,120.706 69.86,120.978C69.276,121.25 68.608,121.494 67.856,121.71C67.104,121.926 66.392,122.034 65.72,122.034ZM66.56,120.618C66.992,120.618 67.52,120.538 68.144,120.378C68.768,120.218 69.332,120.05 69.836,119.874C70.34,119.698 70.672,119.578 70.832,119.514L70.832,115.482L66.92,115.65C66.04,115.682 65.396,115.898 64.988,116.298C64.58,116.698 64.376,117.242 64.376,117.93L64.376,118.506C64.376,119.242 64.588,119.778 65.012,120.114C65.436,120.45 65.952,120.618 66.56,120.618Z" style="fill:rgb(133,133,133);fill-rule:nonzero;"/>
        <path d="M80.552,121.89C79.288,121.89 78.36,121.566 77.768,120.918C77.176,120.27 76.896,119.21 76.928,117.738L77,110.634L74.96,110.634L74.96,109.41L77.024,109.074L77.336,105.498L78.8,105.498L78.8,109.074L82.496,109.074L82.496,110.634L78.8,110.634L78.8,117.738C78.8,118.714 78.984,119.382 79.352,119.742C79.72,120.102 80.184,120.306 80.744,120.354L82.304,120.498L82.304,121.89L80.552,121.89Z" style="fill:rgb(133,133,133);fill-rule:nonzero;"/>
        <path d="M90.008,122.034C88.632,122.034 87.564,121.834 86.804,121.434C86.044,121.034 85.496,120.362 85.16,119.418C84.824,118.474 84.656,117.154 84.656,115.458C84.656,113.746 84.828,112.418 85.172,111.474C85.516,110.53 86.072,109.866 86.84,109.482C87.608,109.098 88.672,108.906 90.032,108.906C91.2,108.906 92.136,109.034 92.84,109.29C93.544,109.546 94.064,109.982 94.4,110.598C94.736,111.214 94.904,112.066 94.904,113.154C94.904,114.242 94.588,115.03 93.956,115.518C93.324,116.006 92.424,116.25 91.256,116.25L86.552,116.25C86.568,117.354 86.68,118.206 86.888,118.806C87.096,119.406 87.48,119.846 88.04,120.126C88.6,120.406 89.408,120.546 90.464,120.546L94.592,120.546L94.592,121.698C93.728,121.81 92.96,121.894 92.288,121.95C91.616,122.006 90.856,122.034 90.008,122.034ZM91.088,115.002C91.824,115.002 92.36,114.866 92.696,114.594C93.032,114.322 93.2,113.85 93.2,113.178C93.2,112.106 92.964,111.366 92.492,110.958C92.02,110.55 91.2,110.346 90.032,110.346C89.104,110.346 88.392,110.482 87.896,110.754C87.4,111.026 87.048,111.49 86.84,112.146C86.632,112.802 86.528,113.754 86.528,115.002L91.088,115.002Z" style="fill:rgb(133,133,133);fill-rule:nonzero;"/>
        <path d="M102.248,122.034C100.664,122.034 99.5,121.514 98.756,120.474C98.012,119.434 97.64,117.802 97.64,115.578C97.64,113.978 97.8,112.69 98.12,111.714C98.44,110.738 98.952,110.026 99.656,109.578C100.36,109.13 101.304,108.906 102.488,108.906C103.704,108.906 105.016,109.162 106.424,109.674L106.424,103.578L108.32,103.578L108.32,121.89L106.784,121.89L106.424,120.594C106.04,120.93 105.424,121.254 104.576,121.566C103.728,121.878 102.952,122.034 102.248,122.034ZM102.8,120.474C103.472,120.474 104.092,120.374 104.66,120.174C105.228,119.974 105.816,119.714 106.424,119.394L106.424,111.018C105.672,110.794 105.06,110.634 104.588,110.538C104.116,110.442 103.584,110.394 102.992,110.394C102.144,110.394 101.472,110.55 100.976,110.862C100.48,111.174 100.116,111.698 99.884,112.434C99.652,113.17 99.536,114.194 99.536,115.506C99.536,117.298 99.784,118.574 100.28,119.334C100.776,120.094 101.616,120.474 102.8,120.474Z" style="fill:rgb(133,133,133);fill-rule:nonzero;"/>
        <path d="M118.664,106.794C118.552,106.794 118.46,106.758 118.388,106.686C118.316,106.614 118.28,106.522 118.28,106.41L118.28,104.538C118.28,104.282 118.408,104.154 118.664,104.154L120.008,104.154C120.248,104.154 120.368,104.282 120.368,104.538L120.368,106.41C120.368,106.666 120.248,106.794 120.008,106.794L118.664,106.794ZM118.376,109.074L120.272,109.074L120.272,121.89L118.376,121.89L118.376,109.074Z" style="fill:rgb(133,133,133);fill-rule:nonzero;"/>
        <path d="M123.92,109.074L125.408,109.074L125.816,110.49C126.488,110.026 127.232,109.638 128.048,109.326C128.864,109.014 129.68,108.858 130.496,108.858C131.824,108.858 132.816,109.266 133.472,110.082C134.128,110.898 134.456,111.93 134.456,113.178L134.456,121.89L132.56,121.89L132.56,113.394C132.56,112.562 132.324,111.886 131.852,111.366C131.38,110.846 130.728,110.586 129.896,110.586C129.128,110.586 128.444,110.686 127.844,110.886C127.244,111.086 126.568,111.402 125.816,111.834L125.816,121.89L123.92,121.89L123.92,109.074Z" style="fill:rgb(133,133,133);fill-rule:nonzero;"/>
        <g transform="matrix(2.43128,0,0,2.43128,-93.8453,-388.018)">
            <path d="M56.823,222.268L56.169,216.851L54.787,222.268L52.788,222.268L51.406,216.925L50.789,222.268L48.729,222.268L49.802,213.112L51.826,213.112L53.812,219.813L55.787,213.112L57.786,213.112L58.871,222.268L56.823,222.268Z" style="fill:rgb(133,133,133);fill-rule:nonzero;"/>
            <path d="M62.734,222.33C61.96,222.33 61.356,222.231 60.92,222.034C60.484,221.836 60.165,221.497 59.963,221.016C59.762,220.534 59.661,219.85 59.661,218.961C59.661,218.048 59.754,217.347 59.939,216.857C60.124,216.368 60.428,216.022 60.852,215.821C61.276,215.619 61.874,215.519 62.647,215.519C63.346,215.519 63.894,215.586 64.288,215.722C64.683,215.858 64.969,216.092 65.146,216.425C65.323,216.759 65.411,217.234 65.411,217.851C65.411,218.517 65.222,218.99 64.844,219.27C64.465,219.549 63.914,219.689 63.19,219.689L61.771,219.689C61.788,219.969 61.839,220.183 61.925,220.331C62.012,220.479 62.162,220.586 62.376,220.652C62.59,220.717 62.902,220.75 63.314,220.75L65.177,220.75L65.177,221.997C64.79,222.104 64.41,222.186 64.035,222.243C63.661,222.301 63.227,222.33 62.734,222.33ZM62.956,218.431C63.161,218.431 63.309,218.387 63.4,218.301C63.49,218.215 63.536,218.069 63.536,217.863C63.536,217.567 63.468,217.357 63.332,217.234C63.196,217.11 62.968,217.049 62.647,217.049C62.31,217.049 62.076,217.145 61.944,217.339C61.812,217.532 61.746,217.896 61.746,218.431L62.956,218.431Z" style="fill:rgb(133,133,133);fill-rule:nonzero;"/>
            <path d="M69.101,222.268C68.549,222.268 68.111,222.192 67.787,222.04C67.462,221.888 67.227,221.635 67.083,221.281C66.939,220.927 66.88,220.446 66.904,219.837L66.966,217.32L65.942,217.32L65.942,215.963L67.052,215.63L67.324,213.766L69.014,213.766L69.014,215.63L70.458,215.63L70.458,217.32L69.014,217.32L69.014,219.825C69.014,220.088 69.06,220.279 69.15,220.399C69.24,220.518 69.376,220.586 69.557,220.602L70.396,220.689L70.396,222.268L69.101,222.268Z" style="fill:rgb(133,133,133);fill-rule:nonzero;"/>
            <path d="M74.234,222.33C73.46,222.33 72.856,222.231 72.42,222.034C71.984,221.836 71.665,221.497 71.464,221.016C71.262,220.534 71.161,219.85 71.161,218.961C71.161,218.048 71.254,217.347 71.439,216.857C71.624,216.368 71.928,216.022 72.352,215.821C72.776,215.619 73.374,215.519 74.147,215.519C74.847,215.519 75.394,215.586 75.788,215.722C76.183,215.858 76.469,216.092 76.646,216.425C76.823,216.759 76.911,217.234 76.911,217.851C76.911,218.517 76.722,218.99 76.344,219.27C75.965,219.549 75.414,219.689 74.69,219.689L73.271,219.689C73.288,219.969 73.339,220.183 73.426,220.331C73.512,220.479 73.662,220.586 73.876,220.652C74.09,220.717 74.402,220.75 74.814,220.75L76.677,220.75L76.677,221.997C76.29,222.104 75.91,222.186 75.536,222.243C75.161,222.301 74.727,222.33 74.234,222.33ZM74.456,218.431C74.661,218.431 74.81,218.387 74.9,218.301C74.991,218.215 75.036,218.069 75.036,217.863C75.036,217.567 74.968,217.357 74.832,217.234C74.696,217.11 74.468,217.049 74.147,217.049C73.81,217.049 73.576,217.145 73.444,217.339C73.312,217.532 73.247,217.896 73.247,218.431L74.456,218.431Z" style="fill:rgb(133,133,133);fill-rule:nonzero;"/>
            <path d="M80.885,222.33C80.111,222.33 79.501,222.221 79.052,222.003C78.604,221.785 78.279,221.431 78.077,220.942C77.876,220.452 77.775,219.784 77.775,218.936C77.775,218.04 77.876,217.347 78.077,216.857C78.279,216.368 78.602,216.022 79.046,215.821C79.49,215.619 80.103,215.519 80.885,215.519C81.666,215.519 82.281,215.621 82.729,215.827C83.178,216.033 83.503,216.382 83.704,216.876C83.906,217.369 84.006,218.056 84.006,218.936C84.006,219.808 83.91,220.487 83.716,220.972C83.523,221.458 83.202,221.805 82.754,222.015C82.306,222.225 81.682,222.33 80.885,222.33ZM80.885,220.639C81.156,220.639 81.358,220.602 81.489,220.528C81.621,220.454 81.717,220.296 81.779,220.053C81.841,219.81 81.872,219.434 81.872,218.924C81.872,218.414 81.841,218.04 81.779,217.801C81.717,217.563 81.621,217.406 81.489,217.332C81.358,217.258 81.156,217.221 80.885,217.221C80.613,217.221 80.414,217.258 80.286,217.332C80.159,217.406 80.064,217.561 80.002,217.795C79.941,218.03 79.91,218.406 79.91,218.924C79.91,219.442 79.941,219.821 80.002,220.059C80.064,220.298 80.161,220.454 80.292,220.528C80.424,220.602 80.621,220.639 80.885,220.639Z" style="fill:rgb(133,133,133);fill-rule:nonzero;"/>
            <path d="M85.055,215.63L86.709,215.63L87.19,216.592C87.437,216.263 87.7,216.004 87.98,215.815C88.259,215.625 88.576,215.531 88.93,215.531C89.135,215.531 89.308,215.551 89.448,215.593L89.448,217.777C89.086,217.744 88.819,217.727 88.646,217.727C88.325,217.727 88.045,217.777 87.807,217.875C87.568,217.974 87.363,218.126 87.19,218.332L87.19,222.268L85.055,222.268L85.055,215.63Z" style="fill:rgb(133,133,133);fill-rule:nonzero;"/>
            <path d="M101.417,222.268L100.763,216.851L99.381,222.268L97.382,222.268L96,216.925L95.383,222.268L93.322,222.268L94.396,213.112L96.42,213.112L98.406,219.813L100.38,213.112L102.379,213.112L103.465,222.268L101.417,222.268Z" style="fill:rgb(133,133,133);fill-rule:nonzero;"/>
            <path d="M107.364,222.33C106.591,222.33 105.98,222.221 105.532,222.003C105.084,221.785 104.759,221.431 104.557,220.942C104.356,220.452 104.255,219.784 104.255,218.936C104.255,218.04 104.356,217.347 104.557,216.857C104.759,216.368 105.082,216.022 105.526,215.821C105.97,215.619 106.583,215.519 107.364,215.519C108.146,215.519 108.761,215.621 109.209,215.827C109.657,216.033 109.982,216.382 110.184,216.876C110.385,217.369 110.486,218.056 110.486,218.936C110.486,219.808 110.39,220.487 110.196,220.972C110.003,221.458 109.682,221.805 109.234,222.015C108.786,222.225 108.162,222.33 107.364,222.33ZM107.364,220.639C107.636,220.639 107.837,220.602 107.969,220.528C108.101,220.454 108.197,220.296 108.259,220.053C108.321,219.81 108.352,219.434 108.352,218.924C108.352,218.414 108.321,218.04 108.259,217.801C108.197,217.563 108.101,217.406 107.969,217.332C107.837,217.258 107.636,217.221 107.364,217.221C107.093,217.221 106.893,217.258 106.766,217.332C106.638,217.406 106.544,217.561 106.482,217.795C106.42,218.03 106.39,218.406 106.39,218.924C106.39,219.442 106.42,219.821 106.482,220.059C106.544,220.298 106.641,220.454 106.772,220.528C106.904,220.602 107.101,220.639 107.364,220.639Z" style="fill:rgb(133,133,133);fill-rule:nonzero;"/>
            <path d="M113.719,222.342C112.929,222.342 112.337,222.085 111.942,221.571C111.547,221.057 111.35,220.207 111.35,219.023C111.35,218.176 111.426,217.499 111.578,216.993C111.73,216.487 111.985,216.115 112.343,215.876C112.701,215.638 113.201,215.519 113.843,215.519C114.344,215.519 114.871,215.613 115.422,215.802L115.422,212.853L117.557,212.853L117.557,222.268L115.755,222.268L115.422,221.651C115.183,221.857 114.916,222.023 114.62,222.151C114.324,222.278 114.023,222.342 113.719,222.342ZM114.484,220.639C114.813,220.639 115.126,220.536 115.422,220.331L115.422,217.345C115.109,217.188 114.821,217.11 114.558,217.11C114.278,217.11 114.065,217.158 113.917,217.252C113.768,217.347 113.659,217.522 113.59,217.777C113.52,218.032 113.485,218.41 113.485,218.912C113.485,219.397 113.516,219.761 113.577,220.004C113.639,220.246 113.74,220.413 113.88,220.504C114.019,220.594 114.221,220.639 114.484,220.639Z" style="fill:rgb(133,133,133);fill-rule:nonzero;"/>
            <path d="M121.653,222.33C120.88,222.33 120.275,222.231 119.839,222.034C119.403,221.836 119.085,221.497 118.883,221.016C118.682,220.534 118.581,219.85 118.581,218.961C118.581,218.048 118.673,217.347 118.858,216.857C119.043,216.368 119.348,216.022 119.771,215.821C120.195,215.619 120.794,215.519 121.567,215.519C122.266,215.519 122.813,215.586 123.208,215.722C123.603,215.858 123.889,216.092 124.066,216.425C124.242,216.759 124.331,217.234 124.331,217.851C124.331,218.517 124.142,218.99 123.763,219.27C123.385,219.549 122.834,219.689 122.11,219.689L120.691,219.689C120.707,219.969 120.759,220.183 120.845,220.331C120.931,220.479 121.081,220.586 121.295,220.652C121.509,220.717 121.822,220.75 122.233,220.75L124.096,220.75L124.096,221.997C123.71,222.104 123.329,222.186 122.955,222.243C122.581,222.301 122.147,222.33 121.653,222.33ZM121.875,218.431C122.081,218.431 122.229,218.387 122.32,218.301C122.41,218.215 122.455,218.069 122.455,217.863C122.455,217.567 122.387,217.357 122.252,217.234C122.116,217.11 121.888,217.049 121.567,217.049C121.23,217.049 120.995,217.145 120.864,217.339C120.732,217.532 120.666,217.896 120.666,218.431L121.875,218.431Z" style="fill:rgb(133,133,133);fill-rule:nonzero;"/>
            <path d="M127.576,222.305C126.836,222.305 126.285,222.124 125.923,221.762C125.561,221.4 125.38,220.853 125.38,220.121L125.38,212.853L127.514,212.853L127.514,219.788C127.514,220.084 127.562,220.3 127.656,220.436C127.751,220.571 127.905,220.656 128.119,220.689L128.563,220.75L128.563,222.305L127.576,222.305Z" style="fill:rgb(133,133,133);fill-rule:nonzero;"/>
            <path d="M132.216,222.33C131.442,222.33 130.838,222.231 130.402,222.034C129.966,221.836 129.647,221.497 129.445,221.016C129.244,220.534 129.143,219.85 129.143,218.961C129.143,218.048 129.236,217.347 129.421,216.857C129.606,216.368 129.91,216.022 130.334,215.821C130.757,215.619 131.356,215.519 132.129,215.519C132.828,215.519 133.375,215.586 133.77,215.722C134.165,215.858 134.451,216.092 134.628,216.425C134.805,216.759 134.893,217.234 134.893,217.851C134.893,218.517 134.704,218.99 134.326,219.27C133.947,219.549 133.396,219.689 132.672,219.689L131.253,219.689C131.27,219.969 131.321,220.183 131.407,220.331C131.494,220.479 131.644,220.586 131.858,220.652C132.072,220.717 132.384,220.75 132.795,220.75L134.659,220.75L134.659,221.997C134.272,222.104 133.892,222.186 133.517,222.243C133.143,222.301 132.709,222.33 132.216,222.33ZM132.438,218.431C132.643,218.431 132.791,218.387 132.882,218.301C132.972,218.215 133.018,218.069 133.018,217.863C133.018,217.567 132.95,217.357 132.814,217.234C132.678,217.11 132.45,217.049 132.129,217.049C131.792,217.049 131.557,217.145 131.426,217.339C131.294,217.532 131.228,217.896 131.228,218.431L132.438,218.431Z" style="fill:rgb(133,133,133);fill-rule:nonzero;"/>
            <path d="M135.942,215.63L137.595,215.63L138.077,216.592C138.323,216.263 138.587,216.004 138.866,215.815C139.146,215.625 139.463,215.531 139.816,215.531C140.022,215.531 140.195,215.551 140.335,215.593L140.335,217.777C139.973,217.744 139.705,217.727 139.533,217.727C139.212,217.727 138.932,217.777 138.694,217.875C138.455,217.974 138.249,218.126 138.077,218.332L138.077,222.268L135.942,222.268L135.942,215.63Z" style="fill:rgb(133,133,133);fill-rule:nonzero;"/>
        </g>
    </g>
</svg>
