<?xml version="1.0" encoding="UTF-8" standalone="no"?>
<!DOCTYPE svg PUBLIC "-//W3C//DTD SVG 1.1//EN" "http://www.w3.org/Graphics/SVG/1.1/DTD/svg11.dtd">
<svg width="100%" height="100%" viewBox="0 0 300 300" version="1.1"
    xmlns="http://www.w3.org/2000/svg"
    xmlns:xlink="http://www.w3.org/1999/xlink" xml:space="preserve" style="fill-rule:evenodd;clip-rule:evenodd;stroke-linejoin:round;stroke-miterlimit:2;">
    <g>
        <path d="M26,163.476L27.968,163.476L31.76,178.524L36.128,163.476L38.048,163.476L42.392,178.524L46.184,163.476L48.152,163.476L43.616,181.14L41.552,181.14L37.088,166.14L32.6,181.14L30.536,181.14L26,163.476Z" style="fill:rgb(133,133,133);fill-rule:nonzero;"/>
        <path d="M49.784,163.476L51.752,163.476L55.544,178.524L59.912,163.476L61.832,163.476L66.176,178.524L69.968,163.476L71.936,163.476L67.4,181.14L65.336,181.14L60.872,166.14L56.384,181.14L54.32,181.14L49.784,163.476Z" style="fill:rgb(133,133,133);fill-rule:nonzero;"/>
        <path d="M73.568,163.476L75.536,163.476L79.328,178.524L83.696,163.476L85.616,163.476L89.96,178.524L93.752,163.476L95.72,163.476L91.184,181.14L89.12,181.14L84.656,166.14L80.168,181.14L78.104,181.14L73.568,163.476Z" style="fill:rgb(133,133,133);fill-rule:nonzero;"/>
        <path d="M97.448,181.164C97.336,181.164 97.244,181.128 97.172,181.056C97.1,180.984 97.064,180.892 97.064,180.78L97.064,178.86C97.064,178.604 97.192,178.476 97.448,178.476L98.504,178.476C98.76,178.476 98.888,178.604 98.888,178.86L98.888,180.78C98.888,181.036 98.76,181.164 98.504,181.164L97.448,181.164Z" style="fill:rgb(133,133,133);fill-rule:nonzero;"/>
        <path d="M102.224,163.476L109.208,163.476C111.272,163.476 112.756,164.212 113.66,165.684C114.564,167.156 115.016,169.364 115.016,172.308C115.016,175.124 114.524,177.3 113.54,178.836C112.556,180.372 111.112,181.14 109.208,181.14L102.224,181.14L102.224,163.476ZM109.064,179.436C110.424,179.436 111.44,178.808 112.112,177.552C112.784,176.296 113.12,174.548 113.12,172.308C113.12,170.564 112.98,169.172 112.7,168.132C112.42,167.092 111.984,166.344 111.392,165.888C110.8,165.432 110.024,165.204 109.064,165.204L104.144,165.204L104.144,179.436L109.064,179.436Z" style="fill:rgb(133,133,133);fill-rule:nonzero;"/>
        <path d="M123.056,163.476L125.504,163.476L131.552,181.14L129.584,181.14L127.808,176.1L120.704,176.1L118.976,181.14L117.008,181.14L123.056,163.476ZM127.328,174.372L124.28,165.156L121.184,174.372L127.328,174.372Z" style="fill:rgb(133,133,133);fill-rule:nonzero;"/>
        <path d="M137.024,165.204L131.552,165.204L131.552,163.476L144.368,163.476L144.368,165.204L138.92,165.204L138.92,181.14L137.024,181.14L137.024,165.204Z" style="fill:rgb(133,133,133);fill-rule:nonzero;"/>
        <path d="M149.96,181.236C148.952,181.236 148.1,181 147.404,180.528C146.708,180.056 146.36,179.148 146.36,177.804L146.36,167.028C146.36,165.78 146.696,164.876 147.368,164.316C148.04,163.756 148.864,163.476 149.84,163.476C152.4,163.524 154.392,163.58 155.816,163.644L157.232,163.692L157.232,165.228L150.32,165.228C148.96,165.228 148.28,165.932 148.28,167.34L148.28,171.516L156.176,171.636L156.176,173.1L148.28,173.22L148.28,177.372C148.28,178.188 148.472,178.74 148.856,179.028C149.24,179.316 149.76,179.46 150.416,179.46L157.232,179.46L157.232,180.996C154.192,181.156 151.768,181.236 149.96,181.236Z" style="fill:rgb(133,133,133);fill-rule:nonzero;"/>
        <path d="M160.784,163.476L162.344,163.476L171.56,177.852L171.56,163.476L173.456,163.476L173.456,181.14L171.896,181.14L162.68,166.764L162.68,181.14L160.784,181.14L160.784,163.476Z" style="fill:rgb(133,133,133);fill-rule:nonzero;"/>
        <path d="M181.856,181.284C181.104,181.284 180.172,181.24 179.06,181.152C177.948,181.064 177.096,180.964 176.504,180.852L176.504,179.388C177.752,179.516 179.512,179.58 181.784,179.58C183,179.58 183.944,179.388 184.616,179.004C185.288,178.62 185.624,177.924 185.624,176.916L185.624,175.716C185.624,174.052 184.744,173.22 182.984,173.22L181.088,173.22C179.568,173.22 178.412,172.888 177.62,172.224C176.828,171.56 176.432,170.468 176.432,168.948L176.432,167.94C176.432,166.324 176.864,165.152 177.728,164.424C178.592,163.696 179.872,163.332 181.568,163.332C182.288,163.332 183.156,163.384 184.172,163.488C185.188,163.592 186.016,163.708 186.656,163.836L186.656,165.276C184.496,165.132 182.864,165.06 181.76,165.06C180.576,165.06 179.696,165.272 179.12,165.696C178.544,166.12 178.256,166.892 178.256,168.012L178.256,168.828C178.256,169.756 178.5,170.416 178.988,170.808C179.476,171.2 180.2,171.396 181.16,171.396L183.2,171.396C184.592,171.396 185.648,171.768 186.368,172.512C187.088,173.256 187.448,174.252 187.448,175.5L187.448,176.868C187.448,178.516 186.948,179.664 185.948,180.312C184.948,180.96 183.584,181.284 181.856,181.284Z" style="fill:rgb(133,133,133);fill-rule:nonzero;"/>
        <path d="M194.312,181.236C193.304,181.236 192.452,181 191.756,180.528C191.06,180.056 190.712,179.148 190.712,177.804L190.712,167.028C190.712,165.78 191.048,164.876 191.72,164.316C192.392,163.756 193.216,163.476 194.192,163.476C196.752,163.524 198.744,163.58 200.168,163.644L201.584,163.692L201.584,165.228L194.672,165.228C193.312,165.228 192.632,165.932 192.632,167.34L192.632,171.516L200.528,171.636L200.528,173.1L192.632,173.22L192.632,177.372C192.632,178.188 192.824,178.74 193.208,179.028C193.592,179.316 194.112,179.46 194.768,179.46L201.584,179.46L201.584,180.996C198.544,181.156 196.12,181.236 194.312,181.236Z" style="fill:rgb(133,133,133);fill-rule:nonzero;"/>
        <path d="M205.136,163.476L206.696,163.476L215.912,177.852L215.912,163.476L217.808,163.476L217.808,181.14L216.248,181.14L207.032,166.764L207.032,181.14L205.136,181.14L205.136,163.476Z" style="fill:rgb(133,133,133);fill-rule:nonzero;"/>
        <path d="M221.216,181.164C221.104,181.164 221.012,181.128 220.94,181.056C220.868,180.984 220.832,180.892 220.832,180.78L220.832,178.86C220.832,178.604 220.96,178.476 221.216,178.476L222.272,178.476C222.528,178.476 222.656,178.604 222.656,178.86L222.656,180.78C222.656,181.036 222.528,181.164 222.272,181.164L221.216,181.164Z" style="fill:rgb(133,133,133);fill-rule:nonzero;"/>
        <path d="M231.296,181.284C229.776,181.284 228.576,181.048 227.696,180.576C226.816,180.104 226.16,179.22 225.728,177.924C225.296,176.628 225.08,174.74 225.08,172.26C225.08,169.908 225.304,168.088 225.752,166.8C226.2,165.512 226.88,164.612 227.792,164.1C228.704,163.588 229.92,163.332 231.44,163.332C232.176,163.332 233.02,163.392 233.972,163.512C234.924,163.632 235.768,163.788 236.504,163.98L236.504,165.396C235.944,165.316 235.224,165.236 234.344,165.156C233.464,165.076 232.592,165.036 231.728,165.036C230.528,165.036 229.592,165.232 228.92,165.624C228.248,166.016 227.756,166.728 227.444,167.76C227.132,168.792 226.976,170.3 226.976,172.284C226.976,174.332 227.124,175.872 227.42,176.904C227.716,177.936 228.192,178.64 228.848,179.016C229.504,179.392 230.448,179.58 231.68,179.58C233.712,179.58 235.32,179.476 236.504,179.268L236.504,180.708C235.768,180.884 234.94,181.024 234.02,181.128C233.1,181.232 232.192,181.284 231.296,181.284Z" style="fill:rgb(133,133,133);fill-rule:nonzero;"/>
        <path d="M245.6,181.284C243.936,181.284 242.628,181.064 241.676,180.624C240.724,180.184 240.004,179.328 239.516,178.056C239.028,176.784 238.784,174.892 238.784,172.38C238.784,169.884 239.036,167.984 239.54,166.68C240.044,165.376 240.776,164.492 241.736,164.028C242.696,163.564 243.984,163.332 245.6,163.332C247.264,163.332 248.576,163.56 249.536,164.016C250.496,164.472 251.216,165.352 251.696,166.656C252.176,167.96 252.416,169.868 252.416,172.38C252.416,174.892 252.172,176.784 251.684,178.056C251.196,179.328 250.476,180.184 249.524,180.624C248.572,181.064 247.264,181.284 245.6,181.284ZM245.6,179.58C246.88,179.58 247.86,179.404 248.54,179.052C249.22,178.7 249.72,178.012 250.04,176.988C250.36,175.964 250.52,174.428 250.52,172.38C250.52,170.252 250.36,168.668 250.04,167.628C249.72,166.588 249.22,165.896 248.54,165.552C247.86,165.208 246.88,165.036 245.6,165.036C244.384,165.036 243.432,165.208 242.744,165.552C242.056,165.896 241.54,166.596 241.196,167.652C240.852,168.708 240.68,170.284 240.68,172.38C240.68,174.444 240.832,175.984 241.136,177C241.44,178.016 241.932,178.7 242.612,179.052C243.292,179.404 244.288,179.58 245.6,179.58Z" style="fill:rgb(133,133,133);fill-rule:nonzero;"/>
        <path d="M270.176,181.14L268.496,166.476L264.248,181.14L262.496,181.14L258.176,166.596L256.568,181.14L254.72,181.14L256.736,163.476L258.68,163.476L263.384,178.74L267.992,163.476L269.96,163.476L272.024,181.14L270.176,181.14Z" style="fill:rgb(133,133,133);fill-rule:nonzero;"/>
        <path d="M32.216,122.034C30.696,122.034 29.496,121.798 28.616,121.326C27.736,120.854 27.08,119.97 26.648,118.674C26.216,117.378 26,115.49 26,113.01C26,110.658 26.224,108.838 26.672,107.55C27.12,106.262 27.8,105.362 28.712,104.85C29.624,104.338 30.84,104.082 32.36,104.082C33.096,104.082 33.94,104.142 34.892,104.262C35.844,104.382 36.688,104.538 37.424,104.73L37.424,106.146C36.864,106.066 36.144,105.986 35.264,105.906C34.384,105.826 33.512,105.786 32.648,105.786C31.448,105.786 30.512,105.982 29.84,106.374C29.168,106.766 28.676,107.478 28.364,108.51C28.052,109.542 27.896,111.05 27.896,113.034C27.896,115.082 28.044,116.622 28.34,117.654C28.636,118.686 29.112,119.39 29.768,119.766C30.424,120.142 31.368,120.33 32.6,120.33C34.632,120.33 36.24,120.226 37.424,120.018L37.424,121.458C36.688,121.634 35.86,121.774 34.94,121.878C34.02,121.982 33.112,122.034 32.216,122.034Z" style="fill:rgb(133,133,133);fill-rule:nonzero;"/>
        <path d="M40.352,109.074L41.792,109.074L42.248,111.306C42.872,110.554 43.544,109.97 44.264,109.554C44.984,109.138 45.776,108.93 46.64,108.93C47.072,108.93 47.472,108.97 47.84,109.05L47.84,110.994C47.12,110.914 46.656,110.874 46.448,110.874C45.6,110.874 44.868,111.026 44.252,111.33C43.636,111.634 42.968,112.122 42.248,112.794L42.248,121.89L40.352,121.89L40.352,109.074Z" style="fill:rgb(133,133,133);fill-rule:nonzero;"/>
        <path d="M55.136,122.034C53.76,122.034 52.692,121.834 51.932,121.434C51.172,121.034 50.624,120.362 50.288,119.418C49.952,118.474 49.784,117.154 49.784,115.458C49.784,113.746 49.956,112.418 50.3,111.474C50.644,110.53 51.2,109.866 51.968,109.482C52.736,109.098 53.8,108.906 55.16,108.906C56.328,108.906 57.264,109.034 57.968,109.29C58.672,109.546 59.192,109.982 59.528,110.598C59.864,111.214 60.032,112.066 60.032,113.154C60.032,114.242 59.716,115.03 59.084,115.518C58.452,116.006 57.552,116.25 56.384,116.25L51.68,116.25C51.696,117.354 51.808,118.206 52.016,118.806C52.224,119.406 52.608,119.846 53.168,120.126C53.728,120.406 54.536,120.546 55.592,120.546L59.72,120.546L59.72,121.698C58.856,121.81 58.088,121.894 57.416,121.95C56.744,122.006 55.984,122.034 55.136,122.034ZM56.216,115.002C56.952,115.002 57.488,114.866 57.824,114.594C58.16,114.322 58.328,113.85 58.328,113.178C58.328,112.106 58.092,111.366 57.62,110.958C57.148,110.55 56.328,110.346 55.16,110.346C54.232,110.346 53.52,110.482 53.024,110.754C52.528,111.026 52.176,111.49 51.968,112.146C51.76,112.802 51.656,113.754 51.656,115.002L56.216,115.002Z" style="fill:rgb(133,133,133);fill-rule:nonzero;"/>
        <path d="M65.72,122.034C64.76,122.034 63.98,121.746 63.38,121.17C62.78,120.594 62.48,119.81 62.48,118.818L62.48,117.906C62.48,116.866 62.82,116.042 63.5,115.434C64.18,114.826 65.176,114.522 66.488,114.522L70.832,114.522L70.832,112.938C70.832,112.074 70.596,111.434 70.124,111.018C69.652,110.602 68.784,110.394 67.52,110.394L63.536,110.394L63.536,109.266C65.04,109.01 66.6,108.882 68.216,108.882C69.768,108.882 70.908,109.198 71.636,109.83C72.364,110.462 72.728,111.466 72.728,112.842L72.728,121.89L71.264,121.89L70.904,120.426C70.792,120.522 70.444,120.706 69.86,120.978C69.276,121.25 68.608,121.494 67.856,121.71C67.104,121.926 66.392,122.034 65.72,122.034ZM66.56,120.618C66.992,120.618 67.52,120.538 68.144,120.378C68.768,120.218 69.332,120.05 69.836,119.874C70.34,119.698 70.672,119.578 70.832,119.514L70.832,115.482L66.92,115.65C66.04,115.682 65.396,115.898 64.988,116.298C64.58,116.698 64.376,117.242 64.376,117.93L64.376,118.506C64.376,119.242 64.588,119.778 65.012,120.114C65.436,120.45 65.952,120.618 66.56,120.618Z" style="fill:rgb(133,133,133);fill-rule:nonzero;"/>
        <path d="M80.552,121.89C79.288,121.89 78.36,121.566 77.768,120.918C77.176,120.27 76.896,119.21 76.928,117.738L77,110.634L74.96,110.634L74.96,109.41L77.024,109.074L77.336,105.498L78.8,105.498L78.8,109.074L82.496,109.074L82.496,110.634L78.8,110.634L78.8,117.738C78.8,118.714 78.984,119.382 79.352,119.742C79.72,120.102 80.184,120.306 80.744,120.354L82.304,120.498L82.304,121.89L80.552,121.89Z" style="fill:rgb(133,133,133);fill-rule:nonzero;"/>
        <path d="M90.008,122.034C88.632,122.034 87.564,121.834 86.804,121.434C86.044,121.034 85.496,120.362 85.16,119.418C84.824,118.474 84.656,117.154 84.656,115.458C84.656,113.746 84.828,112.418 85.172,111.474C85.516,110.53 86.072,109.866 86.84,109.482C87.608,109.098 88.672,108.906 90.032,108.906C91.2,108.906 92.136,109.034 92.84,109.29C93.544,109.546 94.064,109.982 94.4,110.598C94.736,111.214 94.904,112.066 94.904,113.154C94.904,114.242 94.588,115.03 93.956,115.518C93.324,116.006 92.424,116.25 91.256,116.25L86.552,116.25C86.568,117.354 86.68,118.206 86.888,118.806C87.096,119.406 87.48,119.846 88.04,120.126C88.6,120.406 89.408,120.546 90.464,120.546L94.592,120.546L94.592,121.698C93.728,121.81 92.96,121.894 92.288,121.95C91.616,122.006 90.856,122.034 90.008,122.034ZM91.088,115.002C91.824,115.002 92.36,114.866 92.696,114.594C93.032,114.322 93.2,113.85 93.2,113.178C93.2,112.106 92.964,111.366 92.492,110.958C92.02,110.55 91.2,110.346 90.032,110.346C89.104,110.346 88.392,110.482 87.896,110.754C87.4,111.026 87.048,111.49 86.84,112.146C86.632,112.802 86.528,113.754 86.528,115.002L91.088,115.002Z" style="fill:rgb(133,133,133);fill-rule:nonzero;"/>
        <path d="M102.248,122.034C100.664,122.034 99.5,121.514 98.756,120.474C98.012,119.434 97.64,117.802 97.64,115.578C97.64,113.978 97.8,112.69 98.12,111.714C98.44,110.738 98.952,110.026 99.656,109.578C100.36,109.13 101.304,108.906 102.488,108.906C103.704,108.906 105.016,109.162 106.424,109.674L106.424,103.578L108.32,103.578L108.32,121.89L106.784,121.89L106.424,120.594C106.04,120.93 105.424,121.254 104.576,121.566C103.728,121.878 102.952,122.034 102.248,122.034ZM102.8,120.474C103.472,120.474 104.092,120.374 104.66,120.174C105.228,119.974 105.816,119.714 106.424,119.394L106.424,111.018C105.672,110.794 105.06,110.634 104.588,110.538C104.116,110.442 103.584,110.394 102.992,110.394C102.144,110.394 101.472,110.55 100.976,110.862C100.48,111.174 100.116,111.698 99.884,112.434C99.652,113.17 99.536,114.194 99.536,115.506C99.536,117.298 99.784,118.574 100.28,119.334C100.776,120.094 101.616,120.474 102.8,120.474Z" style="fill:rgb(133,133,133);fill-rule:nonzero;"/>
        <path d="M118.664,106.794C118.552,106.794 118.46,106.758 118.388,106.686C118.316,106.614 118.28,106.522 118.28,106.41L118.28,104.538C118.28,104.282 118.408,104.154 118.664,104.154L120.008,104.154C120.248,104.154 120.368,104.282 120.368,104.538L120.368,106.41C120.368,106.666 120.248,106.794 120.008,106.794L118.664,106.794ZM118.376,109.074L120.272,109.074L120.272,121.89L118.376,121.89L118.376,109.074Z" style="fill:rgb(133,133,133);fill-rule:nonzero;"/>
        <path d="M123.92,109.074L125.408,109.074L125.816,110.49C126.488,110.026 127.232,109.638 128.048,109.326C128.864,109.014 129.68,108.858 130.496,108.858C131.824,108.858 132.816,109.266 133.472,110.082C134.128,110.898 134.456,111.93 134.456,113.178L134.456,121.89L132.56,121.89L132.56,113.394C132.56,112.562 132.324,111.886 131.852,111.366C131.38,110.846 130.728,110.586 129.896,110.586C129.128,110.586 128.444,110.686 127.844,110.886C127.244,111.086 126.568,111.402 125.816,111.834L125.816,121.89L123.92,121.89L123.92,109.074Z" style="fill:rgb(133,133,133);fill-rule:nonzero;"/>
        <path d="M45.56,152.716L43.85,138.196L39.98,152.716L35.81,152.716L31.94,138.376L30.29,152.716L26,152.716L28.58,130.516L32.84,130.516L37.94,147.526L43.01,130.516L47.24,130.516L49.85,152.716L45.56,152.716Z" style="fill:rgb(133,133,133);fill-rule:nonzero;"/>
        <path d="M59.48,152.866C57.66,152.866 56.22,152.611 55.16,152.101C54.1,151.591 53.325,150.741 52.835,149.551C52.345,148.361 52.1,146.716 52.1,144.616C52.1,142.436 52.345,140.751 52.835,139.561C53.325,138.371 54.1,137.541 55.16,137.071C56.22,136.601 57.66,136.366 59.48,136.366C61.32,136.366 62.77,136.611 63.83,137.101C64.89,137.591 65.665,138.431 66.155,139.621C66.645,140.811 66.89,142.476 66.89,144.616C66.89,146.756 66.65,148.421 66.17,149.611C65.69,150.801 64.92,151.641 63.86,152.131C62.8,152.621 61.34,152.866 59.48,152.866ZM59.48,149.326C60.26,149.326 60.85,149.221 61.25,149.011C61.65,148.801 61.95,148.361 62.15,147.691C62.35,147.021 62.45,145.996 62.45,144.616C62.45,143.236 62.35,142.211 62.15,141.541C61.95,140.871 61.65,140.431 61.25,140.221C60.85,140.011 60.26,139.906 59.48,139.906C58.72,139.906 58.14,140.011 57.74,140.221C57.34,140.431 57.04,140.871 56.84,141.541C56.64,142.211 56.54,143.236 56.54,144.616C56.54,145.996 56.64,147.021 56.84,147.691C57.04,148.361 57.34,148.801 57.74,149.011C58.14,149.221 58.72,149.326 59.48,149.326Z" style="fill:rgb(133,133,133);fill-rule:nonzero;"/>
        <path d="M76.73,152.866C74.91,152.866 73.47,152.611 72.41,152.101C71.35,151.591 70.575,150.741 70.085,149.551C69.595,148.361 69.35,146.716 69.35,144.616C69.35,142.436 69.595,140.751 70.085,139.561C70.575,138.371 71.35,137.541 72.41,137.071C73.47,136.601 74.91,136.366 76.73,136.366C78.57,136.366 80.02,136.611 81.08,137.101C82.14,137.591 82.915,138.431 83.405,139.621C83.895,140.811 84.14,142.476 84.14,144.616C84.14,146.756 83.9,148.421 83.42,149.611C82.94,150.801 82.17,151.641 81.11,152.131C80.05,152.621 78.59,152.866 76.73,152.866ZM76.73,149.326C77.51,149.326 78.1,149.221 78.5,149.011C78.9,148.801 79.2,148.361 79.4,147.691C79.6,147.021 79.7,145.996 79.7,144.616C79.7,143.236 79.6,142.211 79.4,141.541C79.2,140.871 78.9,140.431 78.5,140.221C78.1,140.011 77.51,139.906 76.73,139.906C75.97,139.906 75.39,140.011 74.99,140.221C74.59,140.431 74.29,140.871 74.09,141.541C73.89,142.211 73.79,143.236 73.79,144.616C73.79,145.996 73.89,147.021 74.09,147.691C74.29,148.361 74.59,148.801 74.99,149.011C75.39,149.221 75.97,149.326 76.73,149.326Z" style="fill:rgb(133,133,133);fill-rule:nonzero;"/>
        <path d="M87.08,136.606L90.74,136.606L91.52,138.256C92.18,137.716 92.97,137.261 93.89,136.891C94.81,136.521 95.71,136.336 96.59,136.336C98.41,136.336 99.7,136.856 100.46,137.896C101.22,138.936 101.6,140.336 101.6,142.096L101.6,152.716L97.16,152.716L97.16,142.666C97.16,141.906 96.955,141.326 96.545,140.926C96.135,140.526 95.57,140.326 94.85,140.326C93.75,140.326 92.64,140.726 91.52,141.526L91.52,152.716L87.08,152.716L87.08,136.606Z" style="fill:rgb(133,133,133);fill-rule:nonzero;"/>
        <path d="M131.84,152.716L130.13,138.196L126.26,152.716L122.09,152.716L118.22,138.376L116.57,152.716L112.28,152.716L114.86,130.516L119.12,130.516L124.22,147.526L129.29,130.516L133.52,130.516L136.13,152.716L131.84,152.716Z" style="fill:rgb(133,133,133);fill-rule:nonzero;"/>
        <path d="M145.76,152.866C143.94,152.866 142.5,152.611 141.44,152.101C140.38,151.591 139.605,150.741 139.115,149.551C138.625,148.361 138.38,146.716 138.38,144.616C138.38,142.436 138.625,140.751 139.115,139.561C139.605,138.371 140.38,137.541 141.44,137.071C142.5,136.601 143.94,136.366 145.76,136.366C147.6,136.366 149.05,136.611 150.11,137.101C151.17,137.591 151.945,138.431 152.435,139.621C152.925,140.811 153.17,142.476 153.17,144.616C153.17,146.756 152.93,148.421 152.45,149.611C151.97,150.801 151.2,151.641 150.14,152.131C149.08,152.621 147.62,152.866 145.76,152.866ZM145.76,149.326C146.54,149.326 147.13,149.221 147.53,149.011C147.93,148.801 148.23,148.361 148.43,147.691C148.63,147.021 148.73,145.996 148.73,144.616C148.73,143.236 148.63,142.211 148.43,141.541C148.23,140.871 147.93,140.431 147.53,140.221C147.13,140.011 146.54,139.906 145.76,139.906C145,139.906 144.42,140.011 144.02,140.221C143.62,140.431 143.32,140.871 143.12,141.541C142.92,142.211 142.82,143.236 142.82,144.616C142.82,145.996 142.92,147.021 143.12,147.691C143.32,148.361 143.62,148.801 144.02,149.011C144.42,149.221 145,149.326 145.76,149.326Z" style="fill:rgb(133,133,133);fill-rule:nonzero;"/>
        <path d="M161.39,152.896C159.45,152.896 158.005,152.266 157.055,151.006C156.105,149.746 155.63,147.686 155.63,144.826C155.63,142.786 155.815,141.156 156.185,139.936C156.555,138.716 157.18,137.816 158.06,137.236C158.94,136.656 160.15,136.366 161.69,136.366C163.01,136.366 164.38,136.616 165.8,137.116L165.8,129.826L170.27,129.826L170.27,152.716L166.52,152.716L165.8,151.186C165.24,151.666 164.56,152.071 163.76,152.401C162.96,152.731 162.17,152.896 161.39,152.896ZM162.95,149.326C163.91,149.326 164.86,149.026 165.8,148.426L165.8,140.326C165.28,140.126 164.815,139.971 164.405,139.861C163.995,139.751 163.57,139.696 163.13,139.696C162.35,139.696 161.745,139.831 161.315,140.101C160.885,140.371 160.57,140.861 160.37,141.571C160.17,142.281 160.07,143.296 160.07,144.616C160.07,145.876 160.165,146.841 160.355,147.511C160.545,148.181 160.845,148.651 161.255,148.921C161.665,149.191 162.23,149.326 162.95,149.326Z" style="fill:rgb(133,133,133);fill-rule:nonzero;"/>
        <path d="M180.38,152.866C178.56,152.866 177.13,152.626 176.09,152.146C175.05,151.666 174.295,150.836 173.825,149.656C173.355,148.476 173.12,146.816 173.12,144.676C173.12,142.476 173.34,140.781 173.78,139.591C174.22,138.401 174.945,137.566 175.955,137.086C176.965,136.606 178.39,136.366 180.23,136.366C181.87,136.366 183.16,136.526 184.1,136.846C185.04,137.166 185.725,137.726 186.155,138.526C186.585,139.326 186.8,140.456 186.8,141.916C186.8,143.476 186.355,144.586 185.465,145.246C184.575,145.906 183.28,146.236 181.58,146.236L177.53,146.236C177.57,147.096 177.7,147.761 177.92,148.231C178.14,148.701 178.53,149.041 179.09,149.251C179.65,149.461 180.47,149.566 181.55,149.566L186.26,149.566L186.26,152.176C185.2,152.396 184.24,152.566 183.38,152.686C182.52,152.806 181.52,152.866 180.38,152.866ZM181.13,143.596C181.75,143.596 182.195,143.471 182.465,143.221C182.735,142.971 182.87,142.546 182.87,141.946C182.87,141.066 182.67,140.451 182.27,140.101C181.87,139.751 181.19,139.576 180.23,139.576C179.53,139.576 178.985,139.691 178.595,139.921C178.205,140.151 177.92,140.556 177.74,141.136C177.56,141.716 177.47,142.536 177.47,143.596L181.13,143.596Z" style="fill:rgb(133,133,133);fill-rule:nonzero;"/>
        <path d="M194.75,152.776C193.05,152.776 191.785,152.351 190.955,151.501C190.125,150.651 189.71,149.326 189.71,147.526L189.71,129.826L194.15,129.826L194.15,146.866C194.15,147.726 194.28,148.341 194.54,148.711C194.8,149.081 195.23,149.306 195.83,149.386L197.06,149.566L197.06,152.776L194.75,152.776Z" style="fill:rgb(133,133,133);fill-rule:nonzero;"/>
        <path d="M205.88,152.866C204.06,152.866 202.63,152.626 201.59,152.146C200.55,151.666 199.795,150.836 199.325,149.656C198.855,148.476 198.62,146.816 198.62,144.676C198.62,142.476 198.84,140.781 199.28,139.591C199.72,138.401 200.445,137.566 201.455,137.086C202.465,136.606 203.89,136.366 205.73,136.366C207.37,136.366 208.66,136.526 209.6,136.846C210.54,137.166 211.225,137.726 211.655,138.526C212.085,139.326 212.3,140.456 212.3,141.916C212.3,143.476 211.855,144.586 210.965,145.246C210.075,145.906 208.78,146.236 207.08,146.236L203.03,146.236C203.07,147.096 203.2,147.761 203.42,148.231C203.64,148.701 204.03,149.041 204.59,149.251C205.15,149.461 205.97,149.566 207.05,149.566L211.76,149.566L211.76,152.176C210.7,152.396 209.74,152.566 208.88,152.686C208.02,152.806 207.02,152.866 205.88,152.866ZM206.63,143.596C207.25,143.596 207.695,143.471 207.965,143.221C208.235,142.971 208.37,142.546 208.37,141.946C208.37,141.066 208.17,140.451 207.77,140.101C207.37,139.751 206.69,139.576 205.73,139.576C205.03,139.576 204.485,139.691 204.095,139.921C203.705,140.151 203.42,140.556 203.24,141.136C203.06,141.716 202.97,142.536 202.97,143.596L206.63,143.596Z" style="fill:rgb(133,133,133);fill-rule:nonzero;"/>
        <path d="M215.21,136.606L218.63,136.606L219.65,139.066C220.29,138.226 220.975,137.571 221.705,137.101C222.435,136.631 223.27,136.396 224.21,136.396C224.73,136.396 225.17,136.446 225.53,136.546L225.53,141.106C224.49,141.006 223.86,140.956 223.64,140.956C222.78,140.956 222.04,141.096 221.42,141.376C220.8,141.656 220.21,142.096 219.65,142.696L219.65,152.716L215.21,152.716L215.21,136.606Z" style="fill:rgb(133,133,133);fill-rule:nonzero;"/>
    </g>
</svg>
