<?xml version="1.0" encoding="UTF-8" standalone="no"?>
<!DOCTYPE svg PUBLIC "-//W3C//DTD SVG 1.1//EN" "http://www.w3.org/Graphics/SVG/1.1/DTD/svg11.dtd">
<svg width="64" height="64" viewBox="0 0 683 683" version="1.1" xmlns="http://www.w3.org/2000/svg" xmlns:xlink="http://www.w3.org/1999/xlink" xml:space="preserve"  style="fill-rule:evenodd;clip-rule:evenodd;stroke-linejoin:round;stroke-miterlimit:2;">
    <g transform="matrix(1,0,0,1,-768.968,0)">
        <g transform="matrix(1,0,0,1,768.968,0)">
            <rect id="triangles" x="0" y="0" width="682.667" height="682.667" style="fill:none;"/>
            <clipPath id="_clip1">
                <rect id="triangles1" x="0" y="0" width="682.667" height="682.667"/>
            </clipPath>
            <g clip-path="url(#_clip1)">
                <g transform="matrix(-5.44287e-17,1,0.666667,4.59243e-17,113.778,-768.968)">
                    <path d="M939.635,0L768.968,0L768.968,170.667L939.635,0Z" style="fill-opacity:0.04;"/>
                </g>
                <g transform="matrix(-5.44287e-17,1,-0.666667,-4.59243e-17,113.778,-768.968)">
                    <path d="M939.635,0L768.968,0L768.968,170.667L939.635,0Z" style="fill-opacity:0.04;"/>
                </g>
                <g transform="matrix(-5.44287e-17,1,0.666667,4.59243e-17,227.556,-598.968)">
                    <path d="M939.635,0L768.968,0L768.968,170.667L939.635,0Z" style="fill-opacity:0.04;"/>
                </g>
                <g transform="matrix(-5.44287e-17,1,-0.666667,-4.59243e-17,227.556,-598.968)">
                    <path d="M939.635,0L768.968,0L768.968,170.667L939.635,0Z" style="fill-opacity:0.04;"/>
                </g>
                <g transform="matrix(1.63286e-16,-1,-0.666667,-1.37773e-16,227.556,939.635)">
                    <path d="M939.635,0L768.968,0L768.968,170.667L939.635,0Z" style="fill-opacity:0.07;"/>
                </g>
                <g transform="matrix(1.63286e-16,-1,0.666667,1.37773e-16,227.556,939.635)">
                    <path d="M939.635,0L768.968,0L768.968,170.667L939.635,0Z" style="fill-opacity:0.07;"/>
                </g>
                <g transform="matrix(1.63286e-16,-1,-0.666667,-1.37773e-16,113.778,1109.64)">
                    <path d="M939.635,0L768.968,0L768.968,170.667L939.635,0Z" style="fill-opacity:0.09;"/>
                </g>
                <g transform="matrix(1.63286e-16,-1,0.666667,1.37773e-16,113.778,1109.64)">
                    <path d="M939.635,0L768.968,0L768.968,170.667L939.635,0Z" style="fill-opacity:0.09;"/>
                </g>
                <g transform="matrix(5.44287e-17,-1,-0.666667,-4.59243e-17,568.889,1109.64)">
                    <path d="M939.635,0L768.968,0L768.968,170.667L939.635,0Z" style="fill-opacity:0.04;"/>
                </g>
                <g transform="matrix(5.44287e-17,-1,0.666667,4.59243e-17,568.889,1109.64)">
                    <path d="M939.635,0L768.968,0L768.968,170.667L939.635,0Z" style="fill-opacity:0.04;"/>
                </g>
                <g transform="matrix(5.44287e-17,-1,-0.666667,-4.59243e-17,455.111,939.635)">
                    <path d="M939.635,0L768.968,0L768.968,170.667L939.635,0Z" style="fill-opacity:0.04;"/>
                </g>
                <g transform="matrix(5.44287e-17,-1,0.666667,4.59243e-17,455.111,939.635)">
                    <path d="M939.635,0L768.968,0L768.968,170.667L939.635,0Z" style="fill-opacity:0.04;"/>
                </g>
                <g transform="matrix(-1.63286e-16,1,0.666667,1.37773e-16,455.111,-598.968)">
                    <path d="M939.635,0L768.968,0L768.968,170.667L939.635,0Z" style="fill-opacity:0.09;"/>
                </g>
                <g transform="matrix(-1.63286e-16,1,0.666667,1.37773e-16,0,-598.968)">
                    <path d="M939.635,0L768.968,0L768.968,170.667L939.635,0Z" style="fill-opacity:0.07;"/>
                </g>
                <g transform="matrix(-1.63286e-16,1,-0.666667,-1.37773e-16,455.111,-598.968)">
                    <path d="M939.635,0L768.968,0L768.968,170.667L939.635,0Z" style="fill-opacity:0.09;"/>
                </g>
                <g transform="matrix(-1.63286e-16,1,-0.666667,-1.37773e-16,682.667,-598.968)">
                    <path d="M939.635,0L768.968,0L768.968,170.667L939.635,0Z" style="fill-opacity:0.07;"/>
                </g>
                <g transform="matrix(-1.63286e-16,1,0.666667,1.37773e-16,0,-256.968)">
                    <path d="M939.635,0L768.968,0L768.968,170.667L939.635,0Z" style="fill-opacity:0.07;"/>
                </g>
                <g transform="matrix(-1.63286e-16,1,-0.666667,-1.37773e-16,682.667,-256.968)">
                    <path d="M939.635,0L768.968,0L768.968,170.667L939.635,0Z" style="fill-opacity:0.07;"/>
                </g>
                <g transform="matrix(-1.63286e-16,1,0.666667,1.37773e-16,568.889,-768.968)">
                    <path d="M939.635,0L768.968,0L768.968,170.667L939.635,0Z" style="fill-opacity:0.07;"/>
                </g>
                <g transform="matrix(-1.63286e-16,1,-0.666667,-1.37773e-16,568.889,-768.968)">
                    <path d="M939.635,0L768.968,0L768.968,170.667L939.635,0Z" style="fill-opacity:0.07;"/>
                </g>
                <g transform="matrix(-1.63286e-16,1,0.666667,1.37773e-16,341.333,-768.968)">
                    <path d="M939.635,0L768.968,0L768.968,170.667L939.635,0Z" style="fill-opacity:0.09;"/>
                </g>
                <g transform="matrix(-1.63286e-16,1,-0.666667,-1.37773e-16,341.333,-768.968)">
                    <path d="M939.635,0L768.968,0L768.968,170.667L939.635,0Z" style="fill-opacity:0.09;"/>
                </g>
                <g transform="matrix(-5.44287e-17,1,0.666667,4.59243e-17,113.778,-426.968)">
                    <path d="M939.635,0L768.968,0L768.968,170.667L939.635,0Z" style="fill-opacity:0.04;"/>
                </g>
                <g transform="matrix(-5.44287e-17,1,-0.666667,-4.59243e-17,113.778,-426.968)">
                    <path d="M939.635,0L768.968,0L768.968,170.667L939.635,0Z" style="fill-opacity:0.04;"/>
                </g>
                <g transform="matrix(-5.44287e-17,1,0.666667,4.59243e-17,227.556,-256.968)">
                    <path d="M939.635,0L768.968,0L768.968,170.667L939.635,0Z" style="fill-opacity:0.04;"/>
                </g>
                <g transform="matrix(-5.44287e-17,1,-0.666667,-4.59243e-17,227.556,-256.968)">
                    <path d="M939.635,0L768.968,0L768.968,170.667L939.635,0Z" style="fill-opacity:0.04;"/>
                </g>
                <g transform="matrix(1.63286e-16,-1,-0.666667,-1.37773e-16,227.556,1281.64)">
                    <path d="M939.635,0L768.968,0L768.968,170.667L939.635,0Z" style="fill-opacity:0.07;"/>
                </g>
                <g transform="matrix(1.63286e-16,-1,0.666667,1.37773e-16,227.556,1281.64)">
                    <path d="M939.635,0L768.968,0L768.968,170.667L939.635,0Z" style="fill-opacity:0.07;"/>
                </g>
                <g transform="matrix(1.63286e-16,-1,-0.666667,-1.37773e-16,113.778,1451.64)">
                    <path d="M939.635,0L768.968,0L768.968,170.667L939.635,0Z" style="fill-opacity:0.09;"/>
                </g>
                <g transform="matrix(1.63286e-16,-1,0.666667,1.37773e-16,113.778,1451.64)">
                    <path d="M939.635,0L768.968,0L768.968,170.667L939.635,0Z" style="fill-opacity:0.09;"/>
                </g>
                <g transform="matrix(5.44287e-17,-1,-0.666667,-4.59243e-17,568.889,1451.64)">
                    <path d="M939.635,0L768.968,0L768.968,170.667L939.635,0Z" style="fill-opacity:0.04;"/>
                </g>
                <g transform="matrix(5.44287e-17,-1,0.666667,4.59243e-17,568.889,1451.64)">
                    <path d="M939.635,0L768.968,0L768.968,170.667L939.635,0Z" style="fill-opacity:0.04;"/>
                </g>
                <g transform="matrix(5.44287e-17,-1,-0.666667,-4.59243e-17,455.111,1281.64)">
                    <path d="M939.635,0L768.968,0L768.968,170.667L939.635,0Z" style="fill-opacity:0.04;"/>
                </g>
                <g transform="matrix(5.44287e-17,-1,0.666667,4.59243e-17,455.111,1281.64)">
                    <path d="M939.635,0L768.968,0L768.968,170.667L939.635,0Z" style="fill-opacity:0.04;"/>
                </g>
                <g transform="matrix(-1.63286e-16,1,0.666667,1.37773e-16,455.111,-256.968)">
                    <path d="M939.635,0L768.968,0L768.968,170.667L939.635,0Z" style="fill-opacity:0.09;"/>
                </g>
                <g transform="matrix(-1.63286e-16,1,-0.666667,-1.37773e-16,455.111,-256.968)">
                    <path d="M939.635,0L768.968,0L768.968,170.667L939.635,0Z" style="fill-opacity:0.09;"/>
                </g>
                <g transform="matrix(-1.63286e-16,1,0.666667,1.37773e-16,568.889,-426.968)">
                    <path d="M939.635,0L768.968,0L768.968,170.667L939.635,0Z" style="fill-opacity:0.07;"/>
                </g>
                <g transform="matrix(-1.63286e-16,1,-0.666667,-1.37773e-16,568.889,-426.968)">
                    <path d="M939.635,0L768.968,0L768.968,170.667L939.635,0Z" style="fill-opacity:0.07;"/>
                </g>
                <g transform="matrix(-1.63286e-16,1,0.666667,1.37773e-16,341.333,-426.968)">
                    <path d="M939.635,0L768.968,0L768.968,170.667L939.635,0Z" style="fill-opacity:0.09;"/>
                </g>
                <g transform="matrix(-1.63286e-16,1,-0.666667,-1.37773e-16,341.333,-426.968)">
                    <path d="M939.635,0L768.968,0L768.968,170.667L939.635,0Z" style="fill-opacity:0.09;"/>
                </g>
            </g>
        </g>
    </g>
</svg>
