<?xml version="1.0" encoding="UTF-8" standalone="no"?>
<!DOCTYPE svg PUBLIC "-//W3C//DTD SVG 1.1//EN" "http://www.w3.org/Graphics/SVG/1.1/DTD/svg11.dtd">
<svg width="48" height="48" viewBox="0 0 683 683" version="1.1" xmlns="http://www.w3.org/2000/svg" xmlns:xlink="http://www.w3.org/1999/xlink" xml:space="preserve" style="fill-rule:evenodd;clip-rule:evenodd;stroke-linejoin:round;stroke-miterlimit:2;">
    <rect id="Artboard1" x="0" y="0" width="682.667" height="682.667" style="fill:none;"/>
    <clipPath id="_clip1">
        <rect id="Artboard11" x="0" y="0" width="682.667" height="682.667"/>
    </clipPath>
    <g clip-path="url(#_clip1)">
        <rect x="341.333" y="341.333" width="341.333" height="341.333" style="fill-opacity:0.04;"/>
        <g transform="matrix(1,0,0,1,-341.333,-341.333)">
            <rect x="341.333" y="341.333" width="341.333" height="341.333" style="fill-opacity:0.04;"/>
        </g>
        <g transform="matrix(2,0,0,0.5,-682.667,170.667)">
            <path d="M682.667,341.333L341.333,341.333L512,682.667L682.667,341.333Z" style="fill-opacity:0.07;"/>
        </g>
        <g transform="matrix(2,0,0,0.5,-341.333,-170.667)">
            <path d="M682.667,341.333L341.333,341.333L512,682.667L682.667,341.333Z" style="fill-opacity:0.07;"/>
        </g>
        <g transform="matrix(2,0,0,0.5,-1024,-170.667)">
            <path d="M682.667,341.333L341.333,341.333L512,682.667L682.667,341.333Z" style="fill-opacity:0.07;"/>
        </g>
    </g>
</svg>
