<?xml version="1.0" encoding="UTF-8" standalone="no"?>
<!DOCTYPE svg PUBLIC "-//W3C//DTD SVG 1.1//EN" "http://www.w3.org/Graphics/SVG/1.1/DTD/svg11.dtd">
<svg width="100%" height="100%" viewBox="0 0 48 28" version="1.1"
    xmlns="http://www.w3.org/2000/svg"
    xmlns:xlink="http://www.w3.org/1999/xlink" xml:space="preserve" style="fill-rule:evenodd;clip-rule:evenodd;stroke-linecap:round;stroke-linejoin:round;stroke-miterlimit:1.5;">
    <g transform="matrix(1,0,0,1.16667,0,0)">
        <g id="condition">
            <rect x="0" y="0" width="48" height="24" style="fill:none;"/>
            <g transform="matrix(1,0,0,1,-1,0)">
                <g transform="matrix(0.467196,0.400453,-0.467196,0.400453,-90.119,-89.3147)">
                    <rect x="225" y="0" width="28" height="28" style="fill:rgb(169,0,177);stroke:rgb(169,0,177);stroke-width:3.03px;"/>
                </g>
                <g transform="matrix(1,0,0,1,-17.9999,1.71422)">
                    <g transform="matrix(1,0,0,0.783159,1,0.400545)">
                        <path d="M32,8.244L32,17" style="fill:none;stroke:rgb(221,221,221);stroke-width:2.09px;"/>
                    </g>
                    <g transform="matrix(-1.73498e-16,0.85714,-0.571055,-7.80107e-17,40.2079,-20.5714)">
                        <path d="M32,8.244L32,17" style="fill:none;stroke:rgb(221,221,221);stroke-width:2.46px;"/>
                    </g>
                    <g transform="matrix(-1.73498e-16,0.85714,-0.571055,-7.80107e-17,40.2079,-13.7142)">
                        <path d="M32,8.244L32,17" style="fill:none;stroke:rgb(221,221,221);stroke-width:2.46px;"/>
                    </g>
                </g>
            </g>
        </g>
    </g>
</svg>
