<?xml version="1.0" encoding="UTF-8" standalone="no"?>
<!DOCTYPE svg PUBLIC "-//W3C//DTD SVG 1.1//EN" "http://www.w3.org/Graphics/SVG/1.1/DTD/svg11.dtd">
<svg width="100%" height="100%" viewBox="0 0 48 28" version="1.1"
    xmlns="http://www.w3.org/2000/svg"
    xmlns:xlink="http://www.w3.org/1999/xlink" xml:space="preserve" style="fill-rule:evenodd;clip-rule:evenodd;stroke-linecap:round;stroke-linejoin:round;stroke-miterlimit:1.5;">
    <g transform="matrix(1,0,0,1,-161,0)">
        <g id="not" transform="matrix(1,0,0,1.16667,161,0)">
            <rect x="0" y="0" width="48" height="24" style="fill:none;"/>
            <clipPath id="_clip1">
                <rect x="0" y="0" width="48" height="24"/>
            </clipPath>
            <g clip-path="url(#_clip1)">
                <g id="cardinality-mandatory-many" transform="matrix(3.2,0,0,1.37143,0,1.71429)">
                    <rect x="0" y="0" width="15" height="15" style="fill:none;"/>
                </g>
                <g transform="matrix(1.03226,0,0,1.10204,-0.516129,-1.22449)">
                    <path d="M0.5,12C17.333,11.728 5.999,5.185 21,5" style="fill:none;stroke:rgb(221,221,221);stroke-width:1.72px;"/>
                    <g transform="matrix(-1,0,0,1,47.5,0)">
                        <path d="M0.5,12C17.333,11.728 5.999,5.185 21,5" style="fill:none;stroke:rgb(221,221,221);stroke-width:1.72px;"/>
                    </g>
                </g>
                <g transform="matrix(1.03226,-2.99914e-17,3.61186e-17,-1.10204,-0.516129,25.2245)">
                    <path d="M0.5,12C17.333,11.728 5.999,5.185 21,5" style="fill:none;stroke:rgb(221,221,221);stroke-width:1.72px;"/>
                    <g transform="matrix(-1,0,0,1,47.5,0)">
                        <path d="M0.5,12C17.333,11.728 5.999,5.185 21,5" style="fill:none;stroke:rgb(221,221,221);stroke-width:1.72px;"/>
                    </g>
                </g>
                <g transform="matrix(1,0,0,0.857143,-160.184,2.41387)">
                    <path d="M180,7L188.368,15.368" style="fill:none;stroke:rgb(221,221,221);stroke-width:2px;"/>
                </g>
                <g transform="matrix(1,0,0,-0.857143,-160.184,21.5861)">
                    <path d="M180,7L188.368,15.368" style="fill:none;stroke:rgb(221,221,221);stroke-width:2px;"/>
                </g>
            </g>
        </g>
    </g>
</svg>
